<svg xmlns="http://www.w3.org/2000/svg" xmlns:xlink="http://www.w3.org/1999/xlink" width="323" height="325" viewBox="0 0 323 325">
  <defs>
    <filter id="Rectangle_1380" x="0" y="1" width="323" height="324" filterUnits="userSpaceOnUse">
      <feOffset dx="15" dy="15" input="SourceAlpha"/>
      <feGaussianBlur result="blur"/>
      <feFlood flood-color="#c5a65d" flood-opacity="0.2"/>
      <feComposite operator="in" in2="blur"/>
      <feComposite in="SourceGraphic"/>
    </filter>
    <clipPath id="clip-path">
      <rect id="Rectangle_1449" data-name="Rectangle 1449" width="308" height="309" rx="10" transform="translate(806 1505)" fill="#fff9d8"/>
    </clipPath>
    <clipPath id="clip-path-2">
      <rect id="Rectangle_1448" data-name="Rectangle 1448" width="232.314" height="430.342" fill="none"/>
    </clipPath>
    <linearGradient id="linear-gradient" x1="0.5" x2="0.5" y2="1" gradientUnits="objectBoundingBox">
      <stop offset="0" stop-color="#fffef5" stop-opacity="0"/>
      <stop offset="1" stop-color="#fffef5"/>
    </linearGradient>
  </defs>
  <g id="Group_5397" data-name="Group 5397" transform="translate(-806 -1425)">
    <g transform="matrix(1, 0, 0, 1, 806, 1425)" filter="url(#Rectangle_1380)">
      <g id="Rectangle_1380-2" data-name="Rectangle 1380" transform="translate(0 1)" fill="#fffef5" stroke="#c5a65d" stroke-width="1">
        <rect width="308" height="309" rx="10" stroke="none"/>
        <rect x="0.5" y="0.5" width="307" height="308" rx="9.5" fill="none"/>
      </g>
    </g>
    <g id="Mask_Group_19" data-name="Mask Group 19" transform="translate(0 -80)" clip-path="url(#clip-path)">
      <g id="Group_4571" data-name="Group 4571" transform="translate(845.432 1534)">
        <g id="Group_4571-2" data-name="Group 4571" clip-path="url(#clip-path-2)">
          <path id="Path_855" data-name="Path 855" d="M6.313,238.687H226A6.313,6.313,0,0,1,232.314,245V512.035A6.313,6.313,0,0,1,226,518.348H6.313A6.313,6.313,0,0,1,0,512.035V245a6.313,6.313,0,0,1,6.313-6.313" transform="translate(0 -88.007)" fill="#fff"/>
          <rect id="Rectangle_1446" data-name="Rectangle 1446" width="231.052" height="278.399" rx="9" transform="translate(0.631 151.312)" fill="none" stroke="#b79148" stroke-width="2"/>
          <path id="Path_856" data-name="Path 856" d="M137.166,97.233v10.289h-1.879v-.955h-8.606v1h-1.849v-10.3h1.849v7.44h3.288v-10.7h1.879v10.7h3.439v-7.47Z" transform="translate(-46.027 -34.661)" fill="#070203"/>
          <path id="Path_857" data-name="Path 857" d="M161.205,94.941v12.986h-1.879V107h-8.954v.924h-1.8V94.941Zm-10.834,5.076h3.485V96.684h-3.485Zm0,5.167h3.485v-3.364h-3.485Zm8.954-8.5H155.69v3.333h3.636Zm0,5.137H155.69v3.364h3.636Z" transform="translate(-54.779 -35.006)" fill="#070203"/>
          <path id="Path_858" data-name="Path 858" d="M182.169,97.767h-1.288l1.288.394a15.752,15.752,0,0,1-1.107,1.894v7.455h-1.788V102.3a14.428,14.428,0,0,1-1.333,1.258,12.143,12.143,0,0,0-1.485-1.272,12.523,12.523,0,0,0,3.924-4.667V96.372h-3.348V94.645h3.348V93.357h1.788v1.288h3.2V93.357h1.8v1.288h3.288v1.727h-3.288V97.8h-1.8V96.372h-3.2Zm6.213,7.849c.621,0,.727-.348.818-2.227a4.935,4.935,0,0,0,1.636.712c-.212,2.454-.682,3.182-2.3,3.182h-2.364c-1.833,0-2.318-.546-2.318-2.425V97.873h1.788v2.985a21.641,21.641,0,0,0,3.3-1.939l1.348,1.364a31.447,31.447,0,0,1-4.652,2.227v2.348c0,.667.092.758.758.758Z" transform="translate(-65.061 -34.422)" fill="#070203"/>
          <path id="Path_859" data-name="Path 859" d="M214.9,102.253h-6v3.637c0,1.045-.227,1.53-.955,1.818a8.945,8.945,0,0,1-3.151.318,8.2,8.2,0,0,0-.757-1.864c1.045.046,2.212.046,2.561.046.318,0,.424-.076.424-.348v-3.607h-6.016v-1.8h6.016V98.056h.894a18.555,18.555,0,0,0,2.166-1.516h-7.5V94.769h9.38l.409-.092,1.379,1.03A23.55,23.55,0,0,1,208.9,99.48v.97h6Z" transform="translate(-74.113 -34.908)" fill="#070203"/>
          <path id="Path_860" data-name="Path 860" d="M233.109,107.1c-.141-.324-.495-.95-.8-1.456v4.81h-.687v-4.718a10.56,10.56,0,0,1-1.232,2.819,4.144,4.144,0,0,0-.384-.646,10.969,10.969,0,0,0,1.536-3.79H230.21v-.7h1.414v-2.182h.688v2.182h1.152v.7h-1.152v.637c.283.374,1.04,1.516,1.213,1.788Zm2.658,1.454c-.809.475-1.667.97-2.354,1.354l-.354-.626c.636-.324,1.586-.838,2.506-1.344Zm1.687-.808a4.438,4.438,0,0,0,2,1.687,3.194,3.194,0,0,0-.485.606,5.311,5.311,0,0,1-2.243-2.364v1.95c0,.4-.081.607-.344.727a3.779,3.779,0,0,1-1.344.131,2.455,2.455,0,0,0-.212-.687c.444.01.879.01,1.011,0s.162-.04.162-.172v-3.78h-2.547v-.636H236v-.779h-2.041v-.586H236v-.717h-2.335v-.617h1.263a7.534,7.534,0,0,0-.505-1.04l.586-.192a5.332,5.332,0,0,1,.607,1.162l-.182.07h1.758l-.091-.03a8.792,8.792,0,0,0,.586-1.252l.737.212c-.212.374-.434.768-.626,1.071h1.334v.617h-2.4v.717h2.182v.586h-2.182v.779h2.546v.636h-2.546v.4a6.255,6.255,0,0,0,.606,1.314,10.436,10.436,0,0,0,1.243-1.354l.576.4a13.626,13.626,0,0,1-1.374,1.374Zm-3.153-1.5a7.066,7.066,0,0,1,1.04,1.3l-.545.384a7.35,7.35,0,0,0-1.01-1.354Z" transform="translate(-84.806 -37.326)" fill="#070203"/>
          <path id="Path_861" data-name="Path 861" d="M5.3,173.319c-.03.172-.071.354-.1.556a17.736,17.736,0,0,0,3.435-.444l.01,1.172a27.8,27.8,0,0,1-3.587.354c-.03.3-.061.615-.071.919a6.9,6.9,0,0,1,1.506-.182H6.67a5.594,5.594,0,0,0,.091-.606l1.233.292c-.04.111-.121.323-.182.516a2.613,2.613,0,0,1,1.95,2.476c0,1.434-.839,2.819-3.324,3.192L5.77,180.5c1.951-.212,2.739-1.2,2.739-2.193a1.5,1.5,0,0,0-1.05-1.414,7.761,7.761,0,0,1-2.122,3.071c.07.253.151.506.232.748l-1.162.354c-.04-.131-.092-.273-.131-.414a3.61,3.61,0,0,1-1.566.4,1.308,1.308,0,0,1-1.365-1.465A4.066,4.066,0,0,1,3.83,176.27q.03-.651.091-1.273H3.6c-.525,0-1.313-.04-1.788-.061l-.03-1.172a14.156,14.156,0,0,0,1.859.142h.4q.029-.289.06-.546c.01-.192.03-.434.021-.607l1.313.031c-.061.2-.1.384-.141.535M3,179.827a2.153,2.153,0,0,0,1.011-.333,14.084,14.084,0,0,1-.212-2.021,2.636,2.636,0,0,0-1.263,1.859c0,.323.142.495.465.495m2.062-1.172a6.217,6.217,0,0,0,1.273-1.93,5.068,5.068,0,0,0-1.395.222v.031a10.631,10.631,0,0,0,.121,1.677" transform="translate(-0.496 -63.696)" fill="#262727"/>
          <path id="Path_862" data-name="Path 862" d="M20.566,174.1a12.53,12.53,0,0,0,1.364-.323l.04,1.172a17.294,17.294,0,0,1-1.769.354,18.588,18.588,0,0,1-2.162,4.325L16.817,179a15.939,15.939,0,0,0,2.061-3.567c-.182.01-.354.01-.525.01-.415,0-.829-.01-1.263-.041L17,174.235a12.766,12.766,0,0,0,1.344.071c.3,0,.606-.011.919-.04a8.457,8.457,0,0,0,.273-1.687l1.395.141c-.081.323-.213.838-.364,1.384m2.728,3.052c.009.293.04.778.061,1.283a6.591,6.591,0,0,1,2.091,1.294l-.677,1.081a8.569,8.569,0,0,0-1.364-1.081v.1c0,.939-.516,1.667-1.95,1.667-1.254,0-2.244-.555-2.244-1.667,0-.991.829-1.749,2.233-1.749.242,0,.465.021.7.041-.04-.748-.091-1.648-.111-2.264h1.263c-.03.424-.01.849,0,1.294m-2.021,3.183c.7,0,.909-.384.909-.94v-.2a3.635,3.635,0,0,0-.819-.1c-.585,0-.96.263-.96.616,0,.374.313.627.869.627m1.333-5.376.646-1a17.331,17.331,0,0,1,2.5,1.374l-.718,1.061a14.567,14.567,0,0,0-2.425-1.435" transform="translate(-6.201 -63.631)" fill="#262727"/>
          <path id="Path_863" data-name="Path 863" d="M36.191,173.794c-.02.111-.051.242-.08.384.565-.08,1.131-.192,1.687-.323v1.263a18.606,18.606,0,0,1-1.97.333c-.091.435-.192.879-.3,1.294a31.412,31.412,0,0,1-1.607,4.678l-1.4-.475a21.915,21.915,0,0,0,1.748-4.547c.071-.273.152-.556.212-.849-.232.01-.455.02-.667.02-.485,0-.869-.02-1.223-.04l-.03-1.263a9.881,9.881,0,0,0,1.273.081q.44,0,.91-.03c.04-.222.071-.414.091-.576a5.13,5.13,0,0,0,.03-1.02l1.546.121c-.081.273-.172.728-.212.95M37.4,179.28c0,.445.3.778,1.384.778a11.861,11.861,0,0,0,2.1-.212l-.051,1.294a16.24,16.24,0,0,1-2.061.141c-1.7,0-2.617-.585-2.617-1.607a7.021,7.021,0,0,1,.182-1.353l1.2.121a3.471,3.471,0,0,0-.141.838m1.536-3.486a17.777,17.777,0,0,1,1.778.092l-.03,1.212a14.843,14.843,0,0,0-1.739-.121,17.372,17.372,0,0,0-1.95.1V175.9c.566-.051,1.294-.1,1.94-.1" transform="translate(-11.988 -63.685)" fill="#262727"/>
          <path id="Path_864" data-name="Path 864" d="M49.934,174.159a26.964,26.964,0,0,0-.485,3.91,4.687,4.687,0,0,0,.041.657c.131-.354.3-.7.455-1.04l.616.5c-.283.829-.606,1.86-.727,2.405a2.826,2.826,0,0,0-.051.475c0,.1.009.273.02.414l-1.142.092a11.849,11.849,0,0,1-.4-3.233,32.011,32.011,0,0,1,.414-4.214,9.653,9.653,0,0,0,.1-.99l1.395.121a6.565,6.565,0,0,0-.232.9m5.1-.354c-.01.222-.02.6-.03,1.041a13.709,13.709,0,0,0,1.566-.233v1.263c-.485.071-1.011.131-1.566.172.02.98.071,1.788.111,2.476a6.607,6.607,0,0,1,1.96,1.3l-.7,1.061a10.537,10.537,0,0,0-1.233-1.02c-.061.97-.606,1.657-1.97,1.657-1.395,0-2.263-.586-2.263-1.648,0-1.02.869-1.727,2.242-1.727a4.589,4.589,0,0,1,.657.04c-.02-.626-.061-1.364-.071-2.081-.242.009-.485.009-.718.009-.6,0-1.172-.02-1.768-.061v-1.2a16.819,16.819,0,0,0,1.768.092c.233,0,.475,0,.708-.011,0-.495-.01-.909-.01-1.121a4.368,4.368,0,0,0-.07-.667H55.1a6.355,6.355,0,0,0-.061.657m-2,6.528c.617,0,.828-.324.828-.92v-.182a3.146,3.146,0,0,0-.808-.111c-.576,0-.96.242-.96.626,0,.415.4.586.94.586" transform="translate(-17.793 -63.838)" fill="#262727"/>
          <path id="Path_865" data-name="Path 865" d="M71.571,173.659l-.565.242.737.455a5.5,5.5,0,0,0-.334.728,10.928,10.928,0,0,1-1.5,2.91c.435.313.829.607,1.132.849l-.97,1.141c-.273-.252-.646-.566-1.061-.9a9.478,9.478,0,0,1-3.608,2.394l-1.172-1.021a8.391,8.391,0,0,0,3.7-2.2c-.657-.475-1.323-.93-1.839-1.263l.9-.92c.536.3,1.173.718,1.819,1.152a7.468,7.468,0,0,0,1.1-2.234H67.024a12.152,12.152,0,0,1-2.668,2.618l-1.091-.849a9.426,9.426,0,0,0,3.223-3.355,4.548,4.548,0,0,0,.455-1.051l1.465.455c-.242.354-.5.808-.626,1.031h2.062a3.16,3.16,0,0,0,.788-.092,10.5,10.5,0,0,0-.657-1.151l.8-.323a12.785,12.785,0,0,1,.8,1.384m1.213-.475-.8.354a10.646,10.646,0,0,0-.818-1.395l.8-.334a15.9,15.9,0,0,1,.818,1.374" transform="translate(-23.326 -63.348)" fill="#262727"/>
          <path id="Path_866" data-name="Path 866" d="M83.057,175.161a12.945,12.945,0,0,0,2.85-2.456L87,173.746a18.537,18.537,0,0,1-2.718,2.192v4.083a6.951,6.951,0,0,0,.091,1.324h-1.6a11.327,11.327,0,0,0,.071-1.324v-3.233a20.253,20.253,0,0,1-3.567,1.455l-.637-1.273a16.228,16.228,0,0,0,4.416-1.809" transform="translate(-28.996 -63.678)" fill="#262727"/>
          <path id="Path_867" data-name="Path 867" d="M95.758,173.526c.091.324.212.738.343,1.2,1.556-.293,3.334-.636,3.819-.747a2.334,2.334,0,0,0,.6-.182l.93.666a19.386,19.386,0,0,1-2.537,3.719l-1.3-.617a9.665,9.665,0,0,0,1.879-2.253c-.3.051-1.647.324-3.062.607.475,1.718,1,3.627,1.2,4.3.071.212.222.7.323.95l-1.506.354a9.947,9.947,0,0,0-.223-1.03c-.182-.617-.7-2.6-1.151-4.295-1.031.212-1.92.4-2.283.495l-.354-1.364c.394-.04.748-.081,1.142-.141.162-.03.6-.1,1.162-.212-.131-.475-.242-.879-.313-1.131a3.846,3.846,0,0,0-.343-.889l1.485-.334a8.1,8.1,0,0,0,.193.9" transform="translate(-34.081 -63.649)" fill="#262727"/>
          <path id="Path_868" data-name="Path 868" d="M109.905,173.974h4.86a7.552,7.552,0,0,0,.91-.051v1.263c-.263-.011-.546-.03-.91-.03h-2.374v1.718h3.051c.212,0,.718-.02.98-.041l.01,1.294c-.283-.03-.737-.03-.96-.03h-3.081v1.546c0,.556.343.758,1.151.758.91,0,1.8-.061,2.607-.141l-.091,1.364c-.657.04-1.8.081-2.749.081-1.849,0-2.3-.637-2.3-1.657V178.1H109.36c-.294,0-.8.03-1.1.051v-1.323c.283.02.788.05,1.1.05h1.646v-1.718h-1.1c-.364,0-.687.01-.98.03v-1.263c.293.02.617.051.98.051" transform="translate(-39.916 -64.127)" fill="#262727"/>
          <path id="Path_869" data-name="Path 869" d="M127.328,178.928A9.519,9.519,0,0,0,131.006,175l.788,1.425a10.744,10.744,0,0,1-3.738,3.739,10.946,10.946,0,0,1-3.749,1.425l-.849-1.334a10.41,10.41,0,0,0,3.87-1.324m0-3.264-1.031,1.051a20.975,20.975,0,0,0-2.526-2.183l.95-1.011a20.411,20.411,0,0,1,2.607,2.143" transform="translate(-45.52 -63.979)" fill="#262727"/>
          <path id="Path_870" data-name="Path 870" d="M140.169,174.343a7.152,7.152,0,0,0-.1-1.223h1.576a10.852,10.852,0,0,0-.092,1.223v1.475a34.97,34.97,0,0,1,4.225,1.576l-.566,1.4a27.087,27.087,0,0,0-3.658-1.506v2.859c0,.283.051.99.1,1.405h-1.586a11.073,11.073,0,0,0,.1-1.405Zm4.951.636-.879.395a8.643,8.643,0,0,0-.889-1.567l.848-.354c.283.425.687,1.071.919,1.526m1.355-.586-.849.414a9.42,9.42,0,0,0-.94-1.516l.839-.394a13.333,13.333,0,0,1,.95,1.5" transform="translate(-51.645 -63.749)" fill="#262727"/>
          <path id="Path_871" data-name="Path 871" d="M162.384,175.53a11.619,11.619,0,0,1-1.708,1.011,4.733,4.733,0,0,0-.707-1.011,10.035,10.035,0,0,0,4.082-3.384H165.3a9.241,9.241,0,0,0,4.274,3.2,6.231,6.231,0,0,0-.778,1.1,12.2,12.2,0,0,1-1.7-.98v.8h-4.718Zm-1.788,1.576h8.356v1.112h-4.527c-.293.6-.626,1.223-.929,1.788.97-.03,2.011-.07,3.042-.111a12.249,12.249,0,0,0-.991-1.031l1.061-.555a13.6,13.6,0,0,1,2.314,2.6l-1.122.677a5.271,5.271,0,0,0-.4-.626c-2.374.131-4.87.232-6.588.313l-.162-1.172,1.526-.051a19.581,19.581,0,0,0,.768-1.829H160.6Zm6.073-1.94a9.836,9.836,0,0,1-1.94-1.869,9.175,9.175,0,0,1-1.85,1.869Z" transform="translate(-58.982 -63.472)" fill="#262727"/>
          <path id="Path_872" data-name="Path 872" d="M182.835,179.993c.949.283,2.011.646,2.708.929l-1.061.849a27,27,0,0,0-3.243-1.172l.848-.606h-2.759l.778.545a13.486,13.486,0,0,1-3.132,1.213,10.486,10.486,0,0,0-.91-.859,12.344,12.344,0,0,0,2.607-.9h-1.586v-4.467h7.387v4.467Zm1.283-4.84h-6.578v-2.526h6.578Zm-5.84,1.627h4.951v-.434h-4.951Zm0,1.192h4.951v-.425h-4.951Zm0,1.213h4.951v-.444h-4.951Zm4.557-5.618h-4.083v.657h4.083Z" transform="translate(-64.917 -63.649)" fill="#262727"/>
          <path id="Path_873" data-name="Path 873" d="M3.478,207.786c-.708.819-1.526,1.7-2.213,2.374L.5,209.14c.556-.545,1.456-1.475,2.284-2.394Zm-.941-2.607a10.625,10.625,0,0,0-1.768-1.526l.869-.879a10.742,10.742,0,0,1,1.8,1.415Zm4.426.94a4.926,4.926,0,0,0,3.082,4.365c-.232.294-.576.788-.768,1.1a5.548,5.548,0,0,1-2.941-3.507,5.953,5.953,0,0,1-3.314,3.507,5.586,5.586,0,0,0-.728-1.01A5,5,0,0,0,5.7,206.129v-1.041H4.892a8.393,8.393,0,0,1-1.05,1.849,7.689,7.689,0,0,0-1.132-.657,8.721,8.721,0,0,0,1.778-4.1l1.252.232a13.436,13.436,0,0,1-.4,1.475H8.813l.232-.061.889.516a14.243,14.243,0,0,1-1.162,2.778,9.557,9.557,0,0,0-1.02-.495,9.987,9.987,0,0,0,.636-1.536H6.963Z" transform="translate(-0.183 -74.545)" fill="#262727"/>
          <path id="Path_874" data-name="Path 874" d="M21.879,211.783l-.758-1.2a7.887,7.887,0,0,0,.94-.162,2.743,2.743,0,0,0,2.3-2.708,2.5,2.5,0,0,0-2.122-2.668,20.648,20.648,0,0,1-.607,2.739c-.606,2.041-1.475,3.294-2.576,3.294-1.122,0-2.052-1.233-2.052-2.941a4.489,4.489,0,0,1,4.638-4.325,3.848,3.848,0,0,1,4.082,3.941c0,2.132-1.3,3.638-3.85,4.032M19.1,209.519c.425,0,.819-.637,1.233-2a15.192,15.192,0,0,0,.535-2.446A3.181,3.181,0,0,0,18.3,208c0,1.021.4,1.516.8,1.516" transform="translate(-6.271 -75.147)" fill="#262727"/>
          <path id="Path_875" data-name="Path 875" d="M40.533,206.765a7.262,7.262,0,0,1-1.5,2.8,7.563,7.563,0,0,1-3.607,2.183l-1-1.142a6.818,6.818,0,0,0,3.5-1.768,4.384,4.384,0,0,0,1.04-1.748h-4.88c-.243,0-.748.01-1.173.05v-1.314c.425.03.86.061,1.173.061h5a2.137,2.137,0,0,0,.738-.1l.9.556a3.952,3.952,0,0,0-.191.424m-5.639-3.3h3.89a9.555,9.555,0,0,0,1.092-.051v1.3c-.273-.02-.748-.03-1.112-.03h-3.87c-.324,0-.758.01-1.051.03v-1.3a8.527,8.527,0,0,0,1.051.051" transform="translate(-12.135 -74.999)" fill="#262727"/>
          <path id="Path_876" data-name="Path 876" d="M51.391,208.928A9.511,9.511,0,0,0,55.069,205l.788,1.425a10.752,10.752,0,0,1-3.739,3.739,10.941,10.941,0,0,1-3.749,1.425l-.848-1.334a10.41,10.41,0,0,0,3.87-1.324m0-3.264-1.031,1.051a21.018,21.018,0,0,0-2.526-2.183l.949-1.011a20.323,20.323,0,0,1,2.607,2.143" transform="translate(-17.522 -75.041)" fill="#262727"/>
          <path id="Path_877" data-name="Path 877" d="M66.131,203.95c-.011.02-.02.03-.03.05h2.031a3.247,3.247,0,0,0,.879-.121l1.03.636a4.074,4.074,0,0,0-.333.728,10.562,10.562,0,0,1-1.758,3.376,9.435,9.435,0,0,1-4.083,2.849L62.675,210.4a8.052,8.052,0,0,0,4.073-2.5,7.193,7.193,0,0,0,1.434-2.759h-2.84a11.536,11.536,0,0,1-2.546,2.446l-1.132-.839a8.9,8.9,0,0,0,3.153-3.254,4.891,4.891,0,0,0,.455-1.061l1.475.484c-.233.354-.5.809-.617,1.031" transform="translate(-22.737 -74.64)" fill="#262727"/>
          <path id="Path_878" data-name="Path 878" d="M81.494,203.456c-.009.1-.009.252-.009.414a21.35,21.35,0,0,0,2.557-.273l-.011,1.162c-.667.081-1.586.172-2.566.223v1.04c1.02-.051,1.879-.131,2.7-.242l-.01,1.193c-.909.1-1.7.171-2.667.2.02.384.04.8.07,1.2a7.922,7.922,0,0,1,2.83,1.526l-.728,1.132a7.748,7.748,0,0,0-2.041-1.4c.009.141.009.263.009.374,0,.859-.657,1.526-1.99,1.526-1.616,0-2.465-.617-2.465-1.687,0-1.021.939-1.739,2.5-1.739a6.167,6.167,0,0,1,.627.031c-.02-.314-.031-.637-.04-.941h-.525c-.586,0-1.738-.051-2.405-.131l-.011-1.192a17.865,17.865,0,0,0,2.436.191h.484c0-.333,0-.7.011-1.04h-.374a23.233,23.233,0,0,1-2.475-.182l-.03-1.151a18.968,18.968,0,0,0,2.5.222h.394v-.475a4.13,4.13,0,0,0-.061-.7h1.364a6.835,6.835,0,0,0-.061.718m-2.041,6.932c.536,0,.889-.152.889-.738,0-.111,0-.253-.01-.434a5.62,5.62,0,0,0-.829-.071c-.718,0-1.112.283-1.112.626,0,.384.364.617,1.061.617" transform="translate(-28.453 -74.752)" fill="#262727"/>
          <path id="Path_879" data-name="Path 879" d="M91.119,204.3c.849-.071,2.517-.222,4.365-.374,1.041-.091,2.143-.152,2.86-.182l.009,1.294a10.5,10.5,0,0,0-1.95.141,3.071,3.071,0,0,0-2.142,2.829c0,1.668,1.556,2.264,3.274,2.355l-.475,1.384c-2.122-.142-4.123-1.273-4.123-3.466a4.044,4.044,0,0,1,1.506-3.123c-.95.1-3.011.324-4.184.577l-.131-1.385c.4-.009.8-.03.99-.051m6.6,3.1-.768.343a7.833,7.833,0,0,0-.788-1.4l.747-.314a12.614,12.614,0,0,1,.809,1.374m1.172-.495-.758.364a8.944,8.944,0,0,0-.829-1.364l.737-.343a15.069,15.069,0,0,1,.849,1.344" transform="translate(-33.232 -75.124)" fill="#262727"/>
          <path id="Path_880" data-name="Path 880" d="M113.477,209.549h1.807v-5.1H113.76v-1.035a5.458,5.458,0,0,0,1.955-.7h1.239v6.843h1.58V210.9h-5.058Z" transform="translate(-41.84 -74.74)" fill="#791019"/>
          <path id="Path_881" data-name="Path 881" d="M123.393,206.671c0-2.774,1.126-4.218,2.853-4.218s2.842,1.455,2.842,4.218c0,2.785-1.114,4.3-2.842,4.3s-2.853-1.512-2.853-4.3m4.115,0c0-2.274-.535-2.91-1.262-2.91s-1.273.636-1.273,2.91.546,2.989,1.273,2.989,1.262-.7,1.262-2.989" transform="translate(-45.496 -74.647)" fill="#791019"/>
          <path id="Path_882" data-name="Path 882" d="M134,206.671c0-2.774,1.126-4.218,2.853-4.218s2.841,1.455,2.841,4.218c0,2.785-1.114,4.3-2.841,4.3s-2.853-1.512-2.853-4.3m4.115,0c0-2.274-.534-2.91-1.261-2.91s-1.273.636-1.273,2.91.546,2.989,1.273,2.989,1.261-.7,1.261-2.989" transform="translate(-49.406 -74.647)" fill="#791019"/>
          <path id="Path_883" data-name="Path 883" d="M145.9,209.029l-1.228-.841a11.862,11.862,0,0,0,2.137-2.933l1.284.6a17.847,17.847,0,0,1-2.193,3.172m4.762-7.07v.909h2.648a9.206,9.206,0,0,0,1.126-.08v1.489c-.364-.023-.807-.033-1.114-.033h-2.66v5.285c0,.66-.375,1.068-1.182,1.068a16.427,16.427,0,0,1-1.853-.1l-.136-1.409a7.858,7.858,0,0,0,1.262.136c.3,0,.41-.113.42-.408.011-.421.011-4.024.011-4.559v-.011h-2.887c-.341,0-.785.011-1.1.045v-1.513a8.547,8.547,0,0,0,1.1.092h2.887v-.909a5.894,5.894,0,0,0-.1-.989h1.682a9.209,9.209,0,0,0-.1.989m4.262,6.252-1.341.727a21.653,21.653,0,0,0-1.841-3.047l1.239-.67a26.378,26.378,0,0,1,1.944,2.99m-1.273-8.116a1.319,1.319,0,1,1-1.318,1.319,1.311,1.311,0,0,1,1.318-1.319m0,1.933a.614.614,0,1,0,0-1.228.614.614,0,1,0,0,1.228" transform="translate(-53.341 -73.777)" fill="#791019"/>
          <path id="Path_884" data-name="Path 884" d="M166.936,203.848a14.573,14.573,0,0,0,3.205-2.763l1.227,1.171a20.862,20.862,0,0,1-3.057,2.466v4.592a7.823,7.823,0,0,0,.1,1.489h-1.8a12.733,12.733,0,0,0,.08-1.489v-3.637a22.727,22.727,0,0,1-4.012,1.637l-.717-1.432a18.286,18.286,0,0,0,4.968-2.035" transform="translate(-59.719 -74.142)" fill="#791019"/>
          <path id="Path_885" data-name="Path 885" d="M183.116,208.085a10.714,10.714,0,0,0,4.137-4.422l.886,1.6a12.1,12.1,0,0,1-4.206,4.206,12.326,12.326,0,0,1-4.217,1.6l-.955-1.5a11.734,11.734,0,0,0,4.353-1.489m0-3.672-1.16,1.182a23.646,23.646,0,0,0-2.841-2.456L180.183,202a22.953,22.953,0,0,1,2.933,2.409" transform="translate(-65.912 -74.481)" fill="#791019"/>
          <path id="Path_886" data-name="Path 886" d="M197.579,202.809a7.889,7.889,0,0,0-.114-1.364h1.773a12.519,12.519,0,0,0-.1,1.364v1.682a37.122,37.122,0,0,1,4.75,1.762l-.648,1.568a32.97,32.97,0,0,0-4.1-1.693v3.217c0,.33.057,1.125.1,1.591h-1.773a12.364,12.364,0,0,0,.114-1.591Z" transform="translate(-72.807 -74.275)" fill="#791019"/>
          <path id="Path_887" data-name="Path 887" d="M217.18,204.3c.849-.071,2.516-.222,4.365-.374,1.041-.091,2.143-.152,2.86-.182l.01,1.294a10.51,10.51,0,0,0-1.951.141,3.071,3.071,0,0,0-2.142,2.829c0,1.668,1.557,2.264,3.274,2.355l-.474,1.384C221,211.608,219,210.477,219,208.284a4.044,4.044,0,0,1,1.506-3.123c-.95.1-3.012.324-4.184.577l-.131-1.385c.4-.009.8-.03.99-.051m6.6,3.1-.768.343a7.832,7.832,0,0,0-.788-1.4l.747-.314a12.51,12.51,0,0,1,.809,1.374m1.172-.495-.758.364a8.846,8.846,0,0,0-.829-1.364l.738-.343a15.2,15.2,0,0,1,.848,1.344" transform="translate(-79.712 -75.124)" fill="#262727"/>
          <path id="Path_888" data-name="Path 888" d="M236.549,203.655c0,.081,0,.192-.01.313,1.02,0,2.405-.02,2.93-.011l-.01,1.193c-.607-.031-1.546-.051-2.92-.051,0,.515.01,1.071.01,1.515a2.575,2.575,0,0,1,.364,1.385c0,1.314-.768,2.99-3.233,3.678l-1.081-1.071a4.544,4.544,0,0,0,2.466-1.152,2.165,2.165,0,0,1-.455.05,1.782,1.782,0,0,1-1.738-1.859,1.905,1.905,0,0,1,2.021-1.889,2.62,2.62,0,0,1,.4.03c0-.222,0-.455-.01-.677-1.526.021-3.1.081-4.345.152l-.03-1.223c1.152,0,2.991-.04,4.365-.061-.01-.131-.01-.233-.02-.314a7.33,7.33,0,0,0-.1-.879h1.465c-.02.162-.061.707-.071.869m-1.687,4.729c.424,0,.8-.324.657-1.213a.745.745,0,0,0-.657-.354.783.783,0,0,0,0,1.566" transform="translate(-85.139 -74.769)" fill="#262727"/>
          <path id="Path_889" data-name="Path 889" d="M38.334,281.138c-1.263.374-2.607.768-3.588,1.061l-.2-.718c.444-.111.99-.252,1.586-.424v-2.446H34.858v-.7h1.273v-2.152H34.737v-.687h3.446v.687H36.849v2.152h1.243v.7H36.849v2.254l1.394-.394Zm4.739,1.92c.232,0,.273-.151.3-1.192a1.78,1.78,0,0,0,.626.292c-.051,1.234-.242,1.547-.848,1.547h-.98c-.717,0-.9-.212-.9-.94v-2.243h-.99a3.427,3.427,0,0,1-2.708,3.314,2.261,2.261,0,0,0-.425-.617,2.787,2.787,0,0,0,2.4-2.7h-.9v-5.528h4.719v5.528H41.992v2.243c0,.253.04.293.294.293Zm-3.719-6.416h3.274V275.63H39.354Zm0,1.607h3.274v-1.011H39.354Zm0,1.637h3.274v-1.031H39.354Z" transform="translate(-12.737 -101.393)" fill="#262727"/>
          <path id="Path_890" data-name="Path 890" d="M59.7,275.856v.717H54.189a13.2,13.2,0,0,1-1.223,2.062v4.84h-.737v-3.951a7.494,7.494,0,0,1-1.172,1.021,3.167,3.167,0,0,0-.383-.677,8.681,8.681,0,0,0,2.667-3.295H50.915v-.717h2.759a13.653,13.653,0,0,0,.535-1.566l.768.192c-.131.455-.3.92-.485,1.374Zm-2.668,6.719H59.7v.708H53.623v-.708H56.28v-2.839H54.017v-.708H56.28V277.1h.748v1.93H59.3v.708H57.028Z" transform="translate(-18.684 -101.134)" fill="#262727"/>
          <path id="Path_891" data-name="Path 891" d="M71.65,283.763l-.475-.748a7.672,7.672,0,0,0,.869-.131,3.051,3.051,0,0,0,2.566-3,2.813,2.813,0,0,0-2.7-2.93,19.881,19.881,0,0,1-.607,2.91c-.617,2.082-1.415,3.143-2.355,3.143-.9,0-1.8-1.031-1.8-2.7a4.306,4.306,0,0,1,4.415-4.112,3.661,3.661,0,0,1,3.87,3.718c0,2.122-1.395,3.537-3.79,3.85m-2.668-1.687c.475,0,1.011-.677,1.526-2.384a16.463,16.463,0,0,0,.566-2.729,3.525,3.525,0,0,0-3.132,3.274c0,1.273.586,1.839,1.04,1.839" transform="translate(-24.76 -101.836)" fill="#262727"/>
          <path id="Path_892" data-name="Path 892" d="M83.114,281.737l-.7-.465a10.808,10.808,0,0,0,1.929-2.648l.708.344a14.677,14.677,0,0,1-1.941,2.768m4.1-6.123v1.031h2.668a7.722,7.722,0,0,0,.828-.051v.838c-.272-.02-.576-.02-.818-.02H87.216V282.3c0,.535-.263.808-.869.808-.424,0-1.03-.03-1.435-.071l-.071-.808a7.187,7.187,0,0,0,1.162.121c.273,0,.394-.121.394-.384v-4.558H83.589c-.3,0-.586.01-.859.031v-.849a7.548,7.548,0,0,0,.859.051H86.4V275.6a3.669,3.669,0,0,0-.07-.718h.949a4.788,4.788,0,0,0-.061.727m3.81,5.659-.748.414A16.687,16.687,0,0,0,88.59,279l.687-.364a21.658,21.658,0,0,1,1.748,2.638m-.96-7.175a1.115,1.115,0,0,1,1.112,1.112,1.106,1.106,0,0,1-2.213,0,1.113,1.113,0,0,1,1.1-1.112m0,1.758a.647.647,0,0,0,.657-.646.654.654,0,0,0-.657-.647.643.643,0,0,0-.636.647.636.636,0,0,0,.636.646" transform="translate(-30.388 -101.063)" fill="#262727"/>
          <path id="Path_893" data-name="Path 893" d="M102.049,277.529a12.018,12.018,0,0,0,2.759-2.375l.677.626a16.484,16.484,0,0,1-2.728,2.254V282.3a7.53,7.53,0,0,0,.061,1.081h-.991a9.215,9.215,0,0,0,.061-1.081V278.56a19.945,19.945,0,0,1-3.85,1.646l-.4-.788a16.7,16.7,0,0,0,4.416-1.889" transform="translate(-35.998 -101.452)" fill="#262727"/>
          <path id="Path_894" data-name="Path 894" d="M116.348,281.249a9.522,9.522,0,0,0,3.376-3.718l.485.859a10.088,10.088,0,0,1-3.4,3.6,11.082,11.082,0,0,1-3.971,1.566l-.536-.829a10.421,10.421,0,0,0,4.042-1.475m-.6-3.2-.637.636a20.987,20.987,0,0,0-2.516-2.112l.576-.616a22.022,22.022,0,0,1,2.577,2.092" transform="translate(-41.408 -101.748)" fill="#262727"/>
          <path id="Path_895" data-name="Path 895" d="M128.116,276.35a6.375,6.375,0,0,0-.081-1.051h.99c-.03.313-.071.748-.071,1.051V278a32.4,32.4,0,0,1,4.315,1.667l-.343.859a26.51,26.51,0,0,0-3.971-1.627c.011,1.516.011,3.042.011,3.334,0,.314.02.859.06,1.192h-.98a8.918,8.918,0,0,0,.071-1.192Z" transform="translate(-47.208 -101.506)" fill="#262727"/>
          <path id="Path_896" data-name="Path 896" d="M39.327,342.246a9.475,9.475,0,0,0-2.759.505c-.313.1-.605.212-.848.313l-.263-.939a6.262,6.262,0,0,0,.929-.152,13.421,13.421,0,0,1,3.022-.485,2.235,2.235,0,0,1,2.506,2.244c0,2.192-1.97,3.425-4.588,3.819l-.455-.768c2.456-.3,4.183-1.273,4.183-3.082a1.53,1.53,0,0,0-1.727-1.455m1.778-2.627-.121.778c-1.122-.071-3.163-.272-4.305-.475l.131-.768a27.311,27.311,0,0,0,4.295.465" transform="translate(-13.073 -125.05)" fill="#262727"/>
          <path id="Path_897" data-name="Path 897" d="M51.41,339.974c-.03.162-.061.354-.111.586a24.263,24.263,0,0,0,3.941-.485l.011.778a34.543,34.543,0,0,1-4.1.424,18.5,18.5,0,0,1-.636,2.386,4.714,4.714,0,0,1,2.85-.86c1.607,0,2.546.819,2.546,2,0,2.1-2.162,2.89-5.234,2.556l-.2-.8c2.334.323,4.608-.081,4.608-1.739,0-.758-.627-1.344-1.809-1.344a3.81,3.81,0,0,0-2.98,1.223,2.053,2.053,0,0,0-.313.465l-.758-.273a16.5,16.5,0,0,0,1.172-3.6h-.01a18.7,18.7,0,0,1-1.92-.1l-.009-.788a12.8,12.8,0,0,0,1.92.172h.172c.051-.263.091-.485.111-.667a4.851,4.851,0,0,0,.04-.839l.9.05c-.07.273-.131.586-.182.849" transform="translate(-17.864 -125.02)" fill="#262727"/>
          <path id="Path_898" data-name="Path 898" d="M71.6,345.152h-4.93v-.678h.98v-4.1H66.8v-.677h.848v-1.213h.687v1.213h1.829v-1.213h.7v1.213H71.6v.677h-.737v4.1H71.6Zm-2.819.4a6.673,6.673,0,0,1-1.5,2.042,4.545,4.545,0,0,0-.606-.435,5.27,5.27,0,0,0,1.385-1.8Zm-.444-4.295h1.829v-.889H68.34Zm0,1.6h1.829v-.99H68.34Zm0,1.616h1.829v-1.011H68.34Zm1.749.889a7.5,7.5,0,0,1,1.061,1.5l-.607.353a7.928,7.928,0,0,0-1.041-1.535Zm5.507,1.263c0,.445-.112.667-.384.788a4.484,4.484,0,0,1-1.506.141,3.05,3.05,0,0,0-.232-.728c.535.01,1.041.01,1.182,0s.212-.05.212-.212v-2.425H72.735a7.914,7.914,0,0,1-.96,3.456,1.94,1.94,0,0,0-.6-.435,9.2,9.2,0,0,0,.919-4.7v-3.648h3.5Zm-.729-3.112v-1.677H72.807v.677c0,.313-.011.657-.021,1Zm-2.061-2.355h2.061v-1.607H72.807Z" transform="translate(-24.583 -124.802)" fill="#262727"/>
          <path id="Path_899" data-name="Path 899" d="M84.236,342.424v5.356h-.747v-8.8h3.648v3.446Zm0-2.021h2.183v-.839H84.236Zm2.183.556H84.236v.889h2.183Zm-.03,5.881v.505h-.677v-4.163H89.46v3.658Zm0-2.142h2.374v-.93H86.389Zm2.374.566H86.389v.98h2.374Zm3.011,1.516c0,.475-.111.728-.444.859a5.779,5.779,0,0,1-1.7.131A2.783,2.783,0,0,0,89.37,347c.616.03,1.233.02,1.415.01s.232-.061.232-.242v-4.335H88.036v-3.456h3.739ZM88.753,340.4h2.264v-.839H88.753Zm2.264.556H88.753v.9h2.264Z" transform="translate(-30.783 -124.985)" fill="#262727"/>
          <path id="Path_900" data-name="Path 900" d="M102.453,339.233c-.313.849-.728,1.879-1.112,2.668a2.945,2.945,0,0,1,1,2.173,1.284,1.284,0,0,1-.414,1.162,1.344,1.344,0,0,1-.566.192,4.5,4.5,0,0,1-.747.01,1.65,1.65,0,0,0-.193-.687,3.707,3.707,0,0,0,.657.02.9.9,0,0,0,.354-.09.813.813,0,0,0,.233-.687,2.8,2.8,0,0,0-1.011-2c.324-.727.657-1.657.9-2.345h-1.485v8.1H99.36V338.96h2.476l.122-.03Zm5.5,4.85a14.061,14.061,0,0,1-1.626,1.324,4.348,4.348,0,0,0,1.879,1.7,2.408,2.408,0,0,0-.495.616,6.188,6.188,0,0,1-2.89-4.3h-1.091v3.113c.617-.121,1.273-.253,1.92-.384l.05.646c-1.263.293-2.607.586-3.586.808l-.243-.727c.324-.061.708-.131,1.132-.212v-7.7h4.527v4.456h-2.062a7.391,7.391,0,0,0,.556,1.456,11.586,11.586,0,0,0,1.344-1.213Zm-4.224-3.213h3.052v-1.233h-3.052Zm0,1.889h3.052v-1.253h-3.052Z" transform="translate(-36.635 -124.967)" fill="#262727"/>
          <path id="Path_901" data-name="Path 901" d="M119.65,346.521a9.173,9.173,0,0,0,1.637.122c.364,0,2.1,0,2.587-.011a2.217,2.217,0,0,0-.283.758h-2.344c-2.092,0-3.6-.364-4.518-2.071a5.54,5.54,0,0,1-1.5,2.253,3.922,3.922,0,0,0-.617-.505,5.838,5.838,0,0,0,1.889-4.113l.768.071a12.955,12.955,0,0,1-.243,1.344,3.035,3.035,0,0,0,1.86,1.95v-4.233h-2.506v-.708h5.851v.708H119.65v1.677h2.992v.7H119.65Zm-3.829-4.88h-.738v-2.182h3.79v-1.152h.778v1.152h3.82v2.182H122.7v-1.475h-6.881Z" transform="translate(-42.257 -124.737)" fill="#262727"/>
          <path id="Path_902" data-name="Path 902" d="M131.689,345.737l-.7-.465a10.808,10.808,0,0,0,1.93-2.648l.708.344a14.618,14.618,0,0,1-1.941,2.768m4.1-6.124v1.031h2.668a7.75,7.75,0,0,0,.828-.051v.838c-.273-.02-.576-.02-.818-.02h-2.678V346.3c0,.535-.263.808-.869.808-.424,0-1.03-.03-1.434-.071l-.071-.808a7.181,7.181,0,0,0,1.162.121c.273,0,.394-.121.394-.384v-4.558h-2.809c-.3,0-.585.01-.859.031v-.849a7.563,7.563,0,0,0,.859.051h2.809V339.6a3.618,3.618,0,0,0-.071-.718h.95a4.79,4.79,0,0,0-.061.727m3.81,5.659-.748.414A16.736,16.736,0,0,0,137.166,343l.687-.364a21.745,21.745,0,0,1,1.749,2.638m-.96-7.175a1.115,1.115,0,0,1,1.112,1.112,1.107,1.107,0,0,1-2.213,0,1.113,1.113,0,0,1,1.1-1.112m0,1.758a.647.647,0,0,0,.657-.646.654.654,0,0,0-.657-.647.643.643,0,0,0-.637.647.636.636,0,0,0,.637.646" transform="translate(-48.298 -124.66)" fill="#262727"/>
          <path id="Path_903" data-name="Path 903" d="M150.625,341.529a12.027,12.027,0,0,0,2.758-2.375l.677.626a16.453,16.453,0,0,1-2.728,2.254V346.3a7.64,7.64,0,0,0,.061,1.081h-.99a9.378,9.378,0,0,0,.061-1.081V342.56a19.909,19.909,0,0,1-3.85,1.646l-.4-.788a16.719,16.719,0,0,0,4.416-1.889" transform="translate(-53.909 -125.05)" fill="#262727"/>
          <path id="Path_904" data-name="Path 904" d="M164.923,345.249a9.52,9.52,0,0,0,3.375-3.718l.485.859a10.094,10.094,0,0,1-3.4,3.6,11.086,11.086,0,0,1-3.971,1.566l-.536-.829a10.425,10.425,0,0,0,4.042-1.475m-.6-3.2-.637.636a21.038,21.038,0,0,0-2.516-2.112l.576-.616a22.025,22.025,0,0,1,2.577,2.091" transform="translate(-59.319 -125.345)" fill="#262727"/>
          <path id="Path_905" data-name="Path 905" d="M176.692,340.35a6.374,6.374,0,0,0-.081-1.051h.99c-.03.313-.071.748-.071,1.051V342a32.391,32.391,0,0,1,4.315,1.667l-.343.859a26.507,26.507,0,0,0-3.971-1.627c.011,1.516.011,3.042.011,3.334,0,.314.02.859.06,1.193h-.98a8.918,8.918,0,0,0,.071-1.193Z" transform="translate(-65.118 -125.103)" fill="#262727"/>
          <path id="Path_906" data-name="Path 906" d="M37.64,396.668a10.088,10.088,0,0,1-1.041,1.526,8.242,8.242,0,0,1,.6,3.517,7.378,7.378,0,0,1-.5,3.425.752.752,0,0,1-.555.313,4.424,4.424,0,0,1-1.061.051,1.508,1.508,0,0,0-.2-.717,6.363,6.363,0,0,0,.98.009.374.374,0,0,0,.293-.161A7.564,7.564,0,0,0,36.5,401.7v-.434a8.086,8.086,0,0,1-1.485,1.747,3.223,3.223,0,0,0-.485-.566,6.835,6.835,0,0,0,1.889-2.3,6.049,6.049,0,0,0-.333-1.364,11.532,11.532,0,0,1-1.041.97,2.5,2.5,0,0,0-.5-.465,8.556,8.556,0,0,0,1.242-1.182,5.792,5.792,0,0,0-1.061-1.344l.525-.384a6,6,0,0,1,.99,1.162A7.823,7.823,0,0,0,37,396.345Zm1.5.354v-.748h.687v.748H41.47v-.748h.687v.748h1.657v.6H42.157v.576H41.49c-.1.182-.2.354-.292.505h2.3v.5H41.218v.525H43.2v.424h-1.98v.545h1.99v.425h-1.99v.576h2.576v.5H38.287V399.8a5.684,5.684,0,0,1-.626.677,4.221,4.221,0,0,0-.475-.465,5.846,5.846,0,0,0,1.546-2.152l.4.1v-.343H37.61v-.6Zm4.123,5.88a4.572,4.572,0,0,1-1.8,1.546,11.791,11.791,0,0,0,2.516.475,2.985,2.985,0,0,0-.414.6,10.951,10.951,0,0,1-2.9-.707,13.442,13.442,0,0,1-3.031.717,3.635,3.635,0,0,0-.343-.6,13.731,13.731,0,0,0,2.617-.495,4.278,4.278,0,0,1-1.253-1.05l.424-.162H37.9v-.576h4.8l.131-.02Zm-2.718-3.708h-1.6v.525h1.6Zm0,.949h-1.6v.545h1.6Zm0,.97h-1.6v.576h1.6Zm-.717-3.5v.576h-.556a4.643,4.643,0,0,1-.252.505H40.51a5.542,5.542,0,0,0,.323-.758l.636.121v-.444Zm-.506,5.608a3.883,3.883,0,0,0,1.364.94,4.623,4.623,0,0,0,1.485-.94Z" transform="translate(-12.731 -146.111)" fill="#262727"/>
          <path id="Path_907" data-name="Path 907" d="M53.543,398.819a11.311,11.311,0,0,1-.829,1.243v5.477h-.737v-4.628A9.752,9.752,0,0,1,50.794,402a4.647,4.647,0,0,0-.394-.717,9.489,9.489,0,0,0,2.486-2.728Zm-.121-2.192a10.11,10.11,0,0,1-2.466,2.4,3.258,3.258,0,0,0-.394-.607,7.75,7.75,0,0,0,2.143-2.061Zm6.326,6.154H58.241v1.94c0,.4-.09.6-.384.718a5.183,5.183,0,0,1-1.536.121,2.545,2.545,0,0,0-.242-.687c.566.021,1.071.021,1.212.01.162-.01.2-.051.2-.182v-1.92H53.442v-.647h4.052v-.859H53.674v-.646h5.891v.646H58.241v.859h1.506Zm-.657-2.829h-4.8v-3.314h4.8Zm-4.244,3a8.891,8.891,0,0,1,1.283,1.4l-.576.4a8.519,8.519,0,0,0-1.242-1.466Zm3.5-5.75H55.018v.809h3.324Zm0,1.354H55.018v.818h3.324Z" transform="translate(-18.583 -146.14)" fill="#262727"/>
          <path id="Path_908" data-name="Path 908" d="M75.936,400.566a14.062,14.062,0,0,1-1.809,2.456l-.606-.384a11.006,11.006,0,0,0,1.182-1.576h-2.87v3.809c0,.465-.121.678-.475.788a7.273,7.273,0,0,1-1.819.122,4.331,4.331,0,0,0-.283-.729c.7.031,1.374.021,1.576.011.182-.011.242-.051.242-.2v-3.8H66.913v-.718h5.234c-.859-.434-2.011-.96-2.91-1.343l.384-.556c.556.222,1.213.495,1.829.768a11.753,11.753,0,0,0,1.92-1.384H67.862v-.7H74.1l.172-.04.546.414a16.174,16.174,0,0,1-2.627,2.051c.414.182.809.374,1.091.525l-.172.263h2.081l.152-.06Z" transform="translate(-24.672 -146.411)" fill="#262727"/>
          <path id="Path_909" data-name="Path 909" d="M87.65,404.521a9.172,9.172,0,0,0,1.637.122c.364,0,2.1,0,2.587-.011a2.216,2.216,0,0,0-.283.758H89.247c-2.092,0-3.6-.364-4.518-2.071a5.541,5.541,0,0,1-1.5,2.253,3.92,3.92,0,0,0-.617-.505,5.838,5.838,0,0,0,1.889-4.113l.768.071a12.957,12.957,0,0,1-.243,1.344,3.035,3.035,0,0,0,1.86,1.95v-4.233H84.376v-.708h5.851v.708H87.65v1.677h2.992v.7H87.65Zm-3.829-4.88h-.738v-2.182h3.79v-1.152h.778v1.152h3.82v2.182H90.7v-1.475H83.821Z" transform="translate(-30.458 -146.122)" fill="#262727"/>
          <path id="Path_910" data-name="Path 910" d="M99.689,403.737l-.7-.465a10.811,10.811,0,0,0,1.93-2.648l.708.344a14.621,14.621,0,0,1-1.941,2.768m4.1-6.124v1.031h2.668a7.742,7.742,0,0,0,.828-.05v.838c-.273-.02-.576-.02-.818-.02h-2.678V404.3c0,.535-.263.808-.869.808-.424,0-1.03-.03-1.434-.071l-.071-.808a7.181,7.181,0,0,0,1.162.121c.273,0,.394-.121.394-.384v-4.558h-2.809c-.3,0-.585.01-.859.031v-.849a7.557,7.557,0,0,0,.859.05h2.809V397.6a3.617,3.617,0,0,0-.071-.718h.95a4.786,4.786,0,0,0-.061.727m3.81,5.659-.748.414A16.734,16.734,0,0,0,105.166,401l.687-.364a21.743,21.743,0,0,1,1.749,2.638m-.96-7.175a1.115,1.115,0,0,1,1.112,1.112,1.107,1.107,0,0,1-2.213,0,1.113,1.113,0,0,1,1.1-1.112m0,1.758a.647.647,0,0,0,.657-.646.654.654,0,0,0-.657-.647.643.643,0,0,0-.637.647.636.636,0,0,0,.637.646" transform="translate(-36.499 -146.046)" fill="#262727"/>
          <path id="Path_911" data-name="Path 911" d="M118.625,399.529a12.027,12.027,0,0,0,2.758-2.375l.677.626a16.455,16.455,0,0,1-2.728,2.254V404.3a7.64,7.64,0,0,0,.061,1.081h-.99a9.382,9.382,0,0,0,.061-1.081V400.56a19.906,19.906,0,0,1-3.85,1.646l-.4-.788a16.718,16.718,0,0,0,4.416-1.889" transform="translate(-42.11 -146.435)" fill="#262727"/>
          <path id="Path_912" data-name="Path 912" d="M132.923,403.249a9.52,9.52,0,0,0,3.375-3.718l.485.859a10.094,10.094,0,0,1-3.4,3.6,11.086,11.086,0,0,1-3.971,1.566l-.536-.829a10.426,10.426,0,0,0,4.042-1.475m-.6-3.2-.637.636a21.033,21.033,0,0,0-2.516-2.112l.576-.616a22.018,22.018,0,0,1,2.577,2.091" transform="translate(-47.52 -146.73)" fill="#262727"/>
          <path id="Path_913" data-name="Path 913" d="M144.692,398.35a6.375,6.375,0,0,0-.081-1.05h.99c-.03.313-.071.748-.071,1.05V400a32.408,32.408,0,0,1,4.315,1.667l-.343.859a26.5,26.5,0,0,0-3.971-1.627c.011,1.516.011,3.042.011,3.334,0,.314.02.859.06,1.193h-.98a8.918,8.918,0,0,0,.071-1.193Z" transform="translate(-53.32 -146.488)" fill="#262727"/>
          <path id="Path_914" data-name="Path 914" d="M43.8,461.6v.717H36.2v1.89a11.716,11.716,0,0,1-1,5.325,2.8,2.8,0,0,0-.637-.424,10.444,10.444,0,0,0,.9-4.9V461.6h3.708v-1.294h.768V461.6Zm-3.526,2.132h3.385v.677H40.269v1.445h2.708v3.658h-.758v-.374H37.854v.394h-.737v-3.678h2.394v-3.325h.758Zm1.95,2.789H37.854v1.94h4.365Z" transform="translate(-12.743 -169.719)" fill="#262727"/>
          <path id="Path_915" data-name="Path 915" d="M52.979,460.3a12.387,12.387,0,0,1,1.728,1.829l-.475.586a10.763,10.763,0,0,0-1.475-1.738,9.974,9.974,0,0,1-1.829,2.344,2.869,2.869,0,0,0-.495-.495,7.736,7.736,0,0,0,1.859-2.526Zm.112,4.577h1.586v.627h-3.91v-.627h1.646v-1.041H51.15v-.6h1.263v-.991h.678v.991h1.323v.6H53.091Zm-1.991,1.3h3.355v3.072h-.687v-.344h-2v.526H51.1Zm.667,2.1h2v-1.475h-2Zm5.831-5.931v.96h1.991v5.436c0,.323-.061.525-.283.637a2.546,2.546,0,0,1-1.061.121,2.178,2.178,0,0,0-.212-.636c.353.009.666.009.758,0s.131-.03.131-.142v-1.465H57.6v2.172H56.93v-2.172H55.677v2.233H55.02V463.31h1.91v-.96H54.737v-.657H56.93v-1.4H57.6v1.4h2.182v.657Zm-1.92,2.607H56.93v-1H55.677Zm1.253.627H55.678v1.04H56.93Zm.667-.627h1.324v-1H57.6Zm1.324.627H57.6v1.04h1.324Zm.313-3.982a6.307,6.307,0,0,0-1.324-.92l.415-.364a5.51,5.51,0,0,1,1.343.869Z" transform="translate(-18.595 -169.714)" fill="#262727"/>
          <path id="Path_916" data-name="Path 916" d="M70.453,461.232c-.313.849-.728,1.88-1.112,2.668a2.943,2.943,0,0,1,1,2.172,1.283,1.283,0,0,1-.414,1.162,1.346,1.346,0,0,1-.566.193,4.511,4.511,0,0,1-.747.009,1.65,1.65,0,0,0-.193-.686,3.83,3.83,0,0,0,.657.02.909.909,0,0,0,.354-.091.813.813,0,0,0,.233-.687,2.8,2.8,0,0,0-1.011-2c.324-.727.657-1.657.9-2.344H68.068v8.1H67.36V460.96h2.476l.122-.03Zm5.5,4.851a14.2,14.2,0,0,1-1.626,1.324,4.343,4.343,0,0,0,1.879,1.7,2.421,2.421,0,0,0-.495.617,6.189,6.189,0,0,1-2.89-4.3H71.725v3.113c.617-.122,1.273-.253,1.92-.384l.051.647c-1.263.292-2.607.586-3.586.808l-.243-.727c.324-.061.708-.131,1.132-.212v-7.7h4.527v4.456H73.463a7.422,7.422,0,0,0,.556,1.456,11.643,11.643,0,0,0,1.344-1.213Zm-4.224-3.213h3.052v-1.233H71.725Zm0,1.889h3.052v-1.253H71.725Z" transform="translate(-24.836 -169.95)" fill="#262727"/>
          <path id="Path_917" data-name="Path 917" d="M87.65,468.52a9.17,9.17,0,0,0,1.637.122c.364,0,2.1,0,2.587-.011a2.217,2.217,0,0,0-.283.758H89.247c-2.092,0-3.6-.364-4.518-2.071a5.54,5.54,0,0,1-1.5,2.253,3.922,3.922,0,0,0-.617-.505,5.838,5.838,0,0,0,1.889-4.113l.768.071a12.955,12.955,0,0,1-.243,1.344,3.035,3.035,0,0,0,1.86,1.95v-4.233H84.376v-.708h5.851v.708H87.65v1.677h2.992v.7H87.65Zm-3.829-4.88h-.738v-2.182h3.79v-1.152h.778v1.152h3.82v2.182H90.7v-1.475H83.821Z" transform="translate(-30.458 -169.719)" fill="#262727"/>
          <path id="Path_918" data-name="Path 918" d="M99.689,467.736l-.7-.465a10.811,10.811,0,0,0,1.93-2.648l.708.344a14.62,14.62,0,0,1-1.941,2.768m4.1-6.124v1.031h2.668a7.75,7.75,0,0,0,.828-.051v.838c-.273-.02-.576-.02-.818-.02h-2.678V468.3c0,.535-.263.808-.869.808-.424,0-1.03-.03-1.434-.071l-.071-.808a7.188,7.188,0,0,0,1.162.121c.273,0,.394-.121.394-.384v-4.558h-2.809c-.3,0-.585.01-.859.031v-.849a7.563,7.563,0,0,0,.859.051h2.809V461.6a3.618,3.618,0,0,0-.071-.718h.95a4.787,4.787,0,0,0-.061.727m3.81,5.659-.748.414A16.735,16.735,0,0,0,105.166,465l.687-.364a21.738,21.738,0,0,1,1.749,2.638m-.96-7.175a1.115,1.115,0,0,1,1.112,1.112,1.107,1.107,0,0,1-2.213,0,1.113,1.113,0,0,1,1.1-1.112m0,1.758a.647.647,0,0,0,.657-.646.654.654,0,0,0-.657-.647.643.643,0,0,0-.637.647.636.636,0,0,0,.637.646" transform="translate(-36.499 -169.643)" fill="#262727"/>
          <path id="Path_919" data-name="Path 919" d="M118.625,463.528a12.026,12.026,0,0,0,2.758-2.375l.677.626a16.452,16.452,0,0,1-2.728,2.254V468.3a7.64,7.64,0,0,0,.061,1.081h-.99a9.381,9.381,0,0,0,.061-1.081v-3.738a19.91,19.91,0,0,1-3.85,1.646l-.4-.788a16.721,16.721,0,0,0,4.416-1.889" transform="translate(-42.11 -170.032)" fill="#262727"/>
          <path id="Path_920" data-name="Path 920" d="M132.923,467.249a9.52,9.52,0,0,0,3.375-3.718l.485.859a10.094,10.094,0,0,1-3.4,3.6,11.086,11.086,0,0,1-3.971,1.566l-.536-.829a10.425,10.425,0,0,0,4.042-1.475m-.6-3.2-.637.636a21.039,21.039,0,0,0-2.516-2.112l.576-.616a22.018,22.018,0,0,1,2.577,2.092" transform="translate(-47.52 -170.328)" fill="#262727"/>
          <path id="Path_921" data-name="Path 921" d="M144.692,462.348a6.375,6.375,0,0,0-.081-1.05h.99c-.03.313-.071.748-.071,1.05V464a32.4,32.4,0,0,1,4.315,1.667l-.343.859a26.5,26.5,0,0,0-3.971-1.627c.011,1.516.011,3.042.011,3.335,0,.314.02.859.06,1.192h-.98a8.918,8.918,0,0,0,.071-1.192Z" transform="translate(-53.32 -170.086)" fill="#262727"/>
          <path id="Path_922" data-name="Path 922" d="M280.08,284.834l1.045-1.409a3.564,3.564,0,0,0,2.5,1.151c1.136,0,1.909-.545,1.909-1.485,0-1.06-.652-1.712-3.091-1.712v-1.607c2.061,0,2.728-.682,2.728-1.62,0-.849-.545-1.349-1.5-1.349a3.072,3.072,0,0,0-2.121,1l-1.136-1.364a4.991,4.991,0,0,1,3.364-1.394c2.167,0,3.637,1.061,3.637,2.939a2.6,2.6,0,0,1-1.864,2.47v.076a2.75,2.75,0,0,1,2.227,2.7c0,2-1.8,3.167-3.939,3.167a4.768,4.768,0,0,1-3.758-1.561" transform="translate(-103.269 -101.412)" fill="#791019"/>
          <path id="Path_923" data-name="Path 923" d="M294.216,284.988l1.031-1.425a3.483,3.483,0,0,0,2.47,1.137,1.81,1.81,0,0,0,1.985-1.909,1.751,1.751,0,0,0-1.895-1.894,2.684,2.684,0,0,0-1.682.59l-1.015-.651.3-5.455h6v1.864h-4.076l-.212,2.379a3.142,3.142,0,0,1,1.349-.3,3.179,3.179,0,0,1,3.455,3.394,3.73,3.73,0,0,1-3.925,3.8,5.111,5.111,0,0,1-3.788-1.53" transform="translate(-108.481 -101.536)" fill="#791019"/>
          <path id="Path_924" data-name="Path 924" d="M308.785,280.668c0-3.7,1.5-5.622,3.8-5.622s3.788,1.939,3.788,5.622c0,3.712-1.485,5.727-3.788,5.727s-3.8-2.015-3.8-5.727m5.485,0c0-3.031-.712-3.879-1.682-3.879s-1.7.848-1.7,3.879.728,3.985,1.7,3.985,1.682-.939,1.682-3.985" transform="translate(-113.852 -101.412)" fill="#791019"/>
          <path id="Path_925" data-name="Path 925" d="M322.92,280.668c0-3.7,1.5-5.622,3.8-5.622s3.788,1.939,3.788,5.622c0,3.712-1.485,5.727-3.788,5.727s-3.8-2.015-3.8-5.727m5.485,0c0-3.031-.712-3.879-1.682-3.879s-1.7.848-1.7,3.879.728,3.985,1.7,3.985,1.682-.939,1.682-3.985" transform="translate(-119.064 -101.412)" fill="#791019"/>
          <path id="Path_926" data-name="Path 926" d="M294.216,347.988l1.031-1.425a3.483,3.483,0,0,0,2.47,1.137,1.81,1.81,0,0,0,1.985-1.909,1.751,1.751,0,0,0-1.895-1.894,2.684,2.684,0,0,0-1.682.59l-1.015-.651.3-5.455h6v1.864h-4.076l-.212,2.379a3.143,3.143,0,0,1,1.349-.3,3.179,3.179,0,0,1,3.455,3.394,3.73,3.73,0,0,1-3.925,3.8,5.111,5.111,0,0,1-3.788-1.53" transform="translate(-108.481 -124.765)" fill="#791019"/>
          <path id="Path_927" data-name="Path 927" d="M308.785,343.668c0-3.7,1.5-5.622,3.8-5.622s3.788,1.939,3.788,5.622c0,3.712-1.485,5.727-3.788,5.727s-3.8-2.015-3.8-5.727m5.485,0c0-3.031-.712-3.879-1.682-3.879s-1.7.848-1.7,3.879.728,3.985,1.7,3.985,1.682-.939,1.682-3.985" transform="translate(-113.852 -124.641)" fill="#791019"/>
          <path id="Path_928" data-name="Path 928" d="M322.92,343.668c0-3.7,1.5-5.622,3.8-5.622s3.788,1.939,3.788,5.622c0,3.712-1.485,5.727-3.788,5.727s-3.8-2.015-3.8-5.727m5.485,0c0-3.031-.712-3.879-1.682-3.879s-1.7.848-1.7,3.879.728,3.985,1.7,3.985,1.682-.939,1.682-3.985" transform="translate(-119.064 -124.641)" fill="#791019"/>
          <path id="Path_929" data-name="Path 929" d="M281.425,406.5h2.409v-6.8H281.8v-1.379a7.281,7.281,0,0,0,2.607-.939h1.651V406.5h2.106v1.8h-6.743Z" transform="translate(-103.764 -146.519)" fill="#791019"/>
          <path id="Path_930" data-name="Path 930" d="M294.216,406.988l1.031-1.425a3.483,3.483,0,0,0,2.47,1.137,1.81,1.81,0,0,0,1.985-1.909,1.751,1.751,0,0,0-1.895-1.894,2.684,2.684,0,0,0-1.682.59l-1.015-.651.3-5.455h6v1.864h-4.076l-.212,2.379a3.143,3.143,0,0,1,1.349-.3,3.179,3.179,0,0,1,3.455,3.394,3.73,3.73,0,0,1-3.925,3.8,5.111,5.111,0,0,1-3.788-1.53" transform="translate(-108.481 -146.519)" fill="#791019"/>
          <path id="Path_931" data-name="Path 931" d="M308.785,402.668c0-3.7,1.5-5.622,3.8-5.622s3.788,1.939,3.788,5.622c0,3.712-1.485,5.727-3.788,5.727s-3.8-2.015-3.8-5.727m5.485,0c0-3.031-.712-3.879-1.682-3.879s-1.7.848-1.7,3.879.728,3.985,1.7,3.985,1.682-.939,1.682-3.985" transform="translate(-113.852 -146.395)" fill="#791019"/>
          <path id="Path_932" data-name="Path 932" d="M322.92,402.668c0-3.7,1.5-5.622,3.8-5.622s3.788,1.939,3.788,5.622c0,3.712-1.485,5.727-3.788,5.727s-3.8-2.015-3.8-5.727m5.485,0c0-3.031-.712-3.879-1.682-3.879s-1.7.848-1.7,3.879.728,3.985,1.7,3.985,1.682-.939,1.682-3.985" transform="translate(-119.064 -146.395)" fill="#791019"/>
          <path id="Path_933" data-name="Path 933" d="M281.425,471.5h2.409v-6.8H281.8V463.32a7.281,7.281,0,0,0,2.607-.939h1.651V471.5h2.106v1.8h-6.743Z" transform="translate(-103.764 -170.485)" fill="#791019"/>
          <path id="Path_934" data-name="Path 934" d="M294.216,471.988l1.031-1.425a3.483,3.483,0,0,0,2.47,1.137,1.81,1.81,0,0,0,1.985-1.909,1.751,1.751,0,0,0-1.895-1.894,2.684,2.684,0,0,0-1.682.59l-1.015-.651.3-5.455h6v1.864h-4.076l-.212,2.379a3.144,3.144,0,0,1,1.349-.3,3.179,3.179,0,0,1,3.455,3.394,3.73,3.73,0,0,1-3.925,3.8,5.111,5.111,0,0,1-3.788-1.53" transform="translate(-108.481 -170.485)" fill="#791019"/>
          <path id="Path_935" data-name="Path 935" d="M308.785,467.667c0-3.7,1.5-5.622,3.8-5.622s3.788,1.939,3.788,5.622c0,3.712-1.485,5.727-3.788,5.727s-3.8-2.015-3.8-5.727m5.485,0c0-3.031-.712-3.879-1.682-3.879s-1.7.848-1.7,3.879.728,3.985,1.7,3.985,1.682-.939,1.682-3.985" transform="translate(-113.852 -170.361)" fill="#791019"/>
          <path id="Path_936" data-name="Path 936" d="M322.92,467.667c0-3.7,1.5-5.622,3.8-5.622s3.788,1.939,3.788,5.622c0,3.712-1.485,5.727-3.788,5.727s-3.8-2.015-3.8-5.727m5.485,0c0-3.031-.712-3.879-1.682-3.879s-1.7.848-1.7,3.879.728,3.985,1.7,3.985,1.682-.939,1.682-3.985" transform="translate(-119.064 -170.361)" fill="#791019"/>
          <path id="Path_937" data-name="Path 937" d="M43.9,526.943a4.557,4.557,0,1,1-4.557-4.558,4.558,4.558,0,0,1,4.557,4.558m-8.337,0a3.78,3.78,0,1,0,3.78-3.779,3.774,3.774,0,0,0-3.78,3.779" transform="translate(-12.825 -192.609)" fill="#262727"/>
          <path id="Path_938" data-name="Path 938" d="M59.9,526.943a4.557,4.557,0,1,1-4.557-4.558,4.558,4.558,0,0,1,4.557,4.558m-8.337,0a3.78,3.78,0,1,0,3.78-3.779,3.774,3.774,0,0,0-3.78,3.779" transform="translate(-18.725 -192.609)" fill="#262727"/>
          <path id="Path_939" data-name="Path 939" d="M75.8,523.6v.717H68.2v1.89a11.716,11.716,0,0,1-1,5.325,2.8,2.8,0,0,0-.637-.424,10.444,10.444,0,0,0,.9-4.9V523.6h3.708V522.3h.768V523.6Zm-3.526,2.132h3.385v.677H72.269v1.445h2.708v3.658h-.758v-.374H69.854v.394h-.737v-3.678h2.394v-3.325h.758Zm1.95,2.789H69.854v1.94h4.365Z" transform="translate(-24.541 -192.58)" fill="#262727"/>
          <path id="Path_940" data-name="Path 940" d="M87.227,524.122c-.01.273,0,.637,0,1.031.8-.02,2.081-.071,2.991-.182l.031.758c-.9.092-2.193.152-3.022.162v.081c0,.667.05,1.646.1,2.526a8.015,8.015,0,0,1,3.142,1.718l-.485.768a7.186,7.186,0,0,0-2.627-1.678c.01.263.021.5.021.678,0,.828-.506,1.535-1.85,1.535-1.395,0-2.425-.444-2.425-1.6,0-.91.8-1.657,2.547-1.657a5.963,5.963,0,0,1,.859.061c-.04-.819-.081-1.749-.081-2.355,0-.586,0-1.415-.01-1.85a5.089,5.089,0,0,0-.081-1H87.3c-.031.213-.061.7-.071,1m-1.778,6.639c.738,0,1.1-.344,1.1-1.041,0-.162-.01-.384-.01-.647a4.684,4.684,0,0,0-.99-.1c-1.04,0-1.637.364-1.637.919s.566.869,1.536.869" transform="translate(-30.641 -192.88)" fill="#262727"/>
          <path id="Path_941" data-name="Path 941" d="M98.875,525.849c.414-1.03,1.465-2.293,2.749-2.293,1.343,0,2.3,1.344,2.3,3.466,0,2.809-1.758,4.042-4.264,4.5l-.475-.728c2.193-.323,3.91-1.222,3.91-3.759,0-1.6-.545-2.748-1.606-2.748-1.263,0-2.436,1.839-2.557,3.162a4.712,4.712,0,0,0,.02,1.243l-.778.061a12.2,12.2,0,0,1-.111-1.607,26.588,26.588,0,0,1,.313-3.264c.04-.3.061-.6.081-.869l.889.03a18.762,18.762,0,0,0-.475,2.809" transform="translate(-36.158 -192.839)" fill="#262727"/>
          <path id="Path_942" data-name="Path 942" d="M43.439,548.394v8.377h-.788v-.616H37.64v.657h-.758v-8.417Zm-5.8,3.466h5.012v-2.728H37.64Zm5.012.737H37.64v2.819h5.012Z" transform="translate(-13.599 -202.199)" fill="#262727"/>
          <path id="Path_943" data-name="Path 943" d="M53.594,554.125c.293,0,.333-.282.364-1.556a2.059,2.059,0,0,0,.677.3c-.081,1.5-.263,1.97-.98,1.97H52.523c-.758,0-.97-.242-.97-1.162V547.77h.727v2.93a15.46,15.46,0,0,0,1.627-1.3l.545.515a17.951,17.951,0,0,1-2.172,1.526v2.254c0,.373.051.434.333.434Zm3.213,1.244a9.447,9.447,0,0,1-2.566,1.313,5.741,5.741,0,0,0-.475-.535,7.7,7.7,0,0,0,2.394-1.193Zm-.061-5.8c.081-.3.162-.666.223-.98H54.595v-.647h5.577v.647H57.818c-.1.333-.212.677-.323.98h2.364v5.214H55.12v-5.214Zm2.385.586H55.817v.97h3.314Zm0,1.506H55.817v.99h3.314Zm0,1.546H55.817v.99h3.314Zm-.748,1.788a12.374,12.374,0,0,1,2.031,1.252l-.586.455a12.965,12.965,0,0,0-2-1.3Z" transform="translate(-19.008 -201.969)" fill="#262727"/>
          <path id="Path_944" data-name="Path 944" d="M71.65,556.763l-.475-.748a7.665,7.665,0,0,0,.869-.131,3.051,3.051,0,0,0,2.566-3,2.813,2.813,0,0,0-2.7-2.93,19.879,19.879,0,0,1-.607,2.91c-.617,2.082-1.415,3.143-2.355,3.143-.9,0-1.8-1.031-1.8-2.7a4.306,4.306,0,0,1,4.415-4.112,3.661,3.661,0,0,1,3.87,3.718c0,2.122-1.395,3.537-3.79,3.85m-2.668-1.687c.475,0,1.011-.677,1.526-2.384a16.463,16.463,0,0,0,.566-2.729,3.525,3.525,0,0,0-3.132,3.274c0,1.273.586,1.839,1.04,1.839" transform="translate(-24.76 -202.494)" fill="#262727"/>
          <path id="Path_945" data-name="Path 945" d="M87.467,552.9H84.759v-2.111h2.749v2.081A6.138,6.138,0,0,0,88.8,551.71a10.2,10.2,0,0,1-.91-2.809H84.224v.889a6.4,6.4,0,0,1-1.1,3.941,2.019,2.019,0,0,0-.545-.465,5.482,5.482,0,0,0,.96-3.486v-1.506H87.8c-.04-.333-.071-.677-.091-1.02h.717c.01.343.04.688.081,1.02h1.839a5.472,5.472,0,0,0-1.283-.636l.394-.445a5.148,5.148,0,0,1,1.435.708l-.313.373h1.112v.627H88.609a9.718,9.718,0,0,0,.657,2.182,6.973,6.973,0,0,0,.819-1.7l.7.162a8.249,8.249,0,0,1-1.151,2.223c.424.687.889,1.081,1.3,1.081.253-.009.354-.364.4-1.273a1.766,1.766,0,0,0,.586.333c-.122,1.263-.395,1.617-1.031,1.617a2.262,2.262,0,0,1-1.718-1.182,6.7,6.7,0,0,1-1.192,1.091,4.476,4.476,0,0,0-.546-.515Zm-4.82,2.961a3.735,3.735,0,0,0,1.344-1.97l.647.221a4.067,4.067,0,0,1-1.374,2.163Zm5.023-5.76H84.587v-.525h3.082Zm.8,5.578c.444,0,.516-.122.545-1.061a1.959,1.959,0,0,0,.687.273c-.1,1.182-.323,1.465-1.172,1.465h-1.96c-1.041,0-1.314-.2-1.314-.97v-1.567H86v1.556c0,.253.081.3.626.3Zm-1.6-4.365H85.385v1.051h1.485Zm-.354,1.758a6.345,6.345,0,0,1,1.728,1.162l-.515.475a6.707,6.707,0,0,0-1.708-1.223Zm3.587.707a7.1,7.1,0,0,1,1.788,2.021l-.667.364a6.717,6.717,0,0,0-1.739-2.052Z" transform="translate(-30.447 -201.756)" fill="#262727"/>
          <path id="Path_946" data-name="Path 946" d="M101.674,549.578h-3v-.617h3Zm-.2,6.346H99.643v.475h-.586v-3.384h2.416Zm-.021-5H99.076v-.6h2.375Zm-2.374.737h2.375v.607H99.077Zm2.354-3.415H99.117v-.606h2.314Zm-.576,5.385H99.643v1.688h1.213Zm4.295-1.586c-.141.273-.293.545-.465.819V555.7c0,.364-.09.576-.333.7a3.918,3.918,0,0,1-1.294.122,2.208,2.208,0,0,0-.242-.637c.5.02.93.01,1.061.01s.182-.051.182-.192v-1.97a10.562,10.562,0,0,1-2.1,2,6.12,6.12,0,0,0-.485-.566,8.472,8.472,0,0,0,2.162-1.97l-1.859.4-.162-.627c.152-.02.313-.051.485-.081V548.3h.8a9.519,9.519,0,0,0,.263-1.03l.728.141c-.111.3-.222.616-.334.889h1.132v3.6Zm-2.436-2.334h1.344v-.828h-1.344Zm1.344.576h-1.344v.838h1.344Zm-1.344,2.5c.424-.081.879-.172,1.344-.263v-.809h-1.344Zm5.234-2.314h-.566v5.173c0,.434-.1.646-.374.758a3.672,3.672,0,0,1-1.374.142,2.933,2.933,0,0,0-.222-.7c.506.02.95.01,1.091.01.122-.01.182-.051.182-.2v-5.184H104.9v-.7h1.788v-2.394h.7v2.394h.566ZM105.7,553.9a9.62,9.62,0,0,0-.556-2.456l.556-.131a10.091,10.091,0,0,1,.6,2.445Z" transform="translate(-36.382 -201.786)" fill="#262727"/>
          <path id="Path_947" data-name="Path 947" d="M118.366,548.595c-.01.242-.03.636-.041,1.092a13.517,13.517,0,0,0,2.082-.4l.02.788a18.669,18.669,0,0,1-2.122.354c-.011.475-.02.96-.02,1.364v.354a7.664,7.664,0,0,1,2.223-.373c1.475,0,2.537.8,2.537,2.01s-.768,2-2.152,2.334a7.612,7.612,0,0,1-1.254.142l-.283-.819a5.146,5.146,0,0,0,1.182-.07c.889-.172,1.7-.647,1.7-1.576,0-.86-.778-1.324-1.739-1.324a6.628,6.628,0,0,0-2.2.395c.021.859.041,1.758.041,2.193,0,.94-.343,1.243-.889,1.243-.788,0-2.1-.778-2.1-1.677,0-.839,1.051-1.718,2.213-2.213v-.576c0-.4,0-.879.01-1.323-.283.02-.536.03-.747.03a11.078,11.078,0,0,1-1.294-.051l-.02-.768a9.357,9.357,0,0,0,1.294.081c.232,0,.495-.01.778-.03,0-.525.009-.97.009-1.152a5.329,5.329,0,0,0-.051-.717h.9a6.321,6.321,0,0,0-.071.7m-1.132,6.841c.232,0,.374-.162.374-.495,0-.364-.021-1.05-.03-1.788-.829.384-1.445.97-1.445,1.425s.707.859,1.1.859m6.649-4.941-.414.646a12.819,12.819,0,0,0-2.263-1.515l.364-.607a18.331,18.331,0,0,1,2.314,1.475" transform="translate(-42.529 -202.016)" fill="#262727"/>
          <path id="Path_948" data-name="Path 948" d="M134.68,549.437a9.256,9.256,0,0,1-1.314,2.153c.485.4,1.395,1.2,1.647,1.435l-.465.616a19.163,19.163,0,0,0-1.375-1.4v4.285h-.727v-3.93a10.288,10.288,0,0,1-1.667,1.323,3.262,3.262,0,0,0-.394-.687,8.832,8.832,0,0,0,3.324-3.354h-2.971v-.687h1.708V547.3h.727v1.88h.95l.131-.03Zm3.86,6.245c.485,0,.566-.394.636-1.92a1.947,1.947,0,0,0,.708.324c-.111,1.727-.313,2.323-1.294,2.323h-1.758c-.97,0-1.263-.293-1.263-1.394v-7.528h.768v7.548c0,.535.09.646.576.646Z" transform="translate(-48.074 -201.797)" fill="#262727"/>
          <path id="Path_949" data-name="Path 949" d="M147.689,554.736l-.7-.465a10.809,10.809,0,0,0,1.93-2.648l.708.344a14.62,14.62,0,0,1-1.941,2.768m4.1-6.124v1.031h2.668a7.758,7.758,0,0,0,.828-.051v.838c-.273-.02-.576-.02-.818-.02h-2.678V555.3c0,.535-.263.808-.869.808-.424,0-1.03-.03-1.434-.071l-.071-.808a7.177,7.177,0,0,0,1.162.121c.273,0,.394-.121.394-.384v-4.558h-2.809c-.3,0-.585.01-.859.031v-.849a7.571,7.571,0,0,0,.859.051h2.809V548.6a3.618,3.618,0,0,0-.071-.718h.95a4.788,4.788,0,0,0-.061.727m3.81,5.659-.748.414A16.729,16.729,0,0,0,153.166,552l.687-.364a21.737,21.737,0,0,1,1.749,2.637m-.96-7.175a1.115,1.115,0,0,1,1.112,1.112,1.107,1.107,0,0,1-2.213,0,1.113,1.113,0,0,1,1.1-1.112m0,1.758a.647.647,0,0,0,.657-.646.654.654,0,0,0-.657-.647.643.643,0,0,0-.637.647.636.636,0,0,0,.637.646" transform="translate(-54.198 -201.721)" fill="#262727"/>
          <path id="Path_950" data-name="Path 950" d="M166.625,550.528a12.028,12.028,0,0,0,2.758-2.375l.677.626a16.454,16.454,0,0,1-2.728,2.254V555.3a7.64,7.64,0,0,0,.061,1.081h-.99a9.38,9.38,0,0,0,.061-1.081v-3.738a19.907,19.907,0,0,1-3.85,1.646l-.4-.788a16.721,16.721,0,0,0,4.416-1.889" transform="translate(-59.808 -202.11)" fill="#262727"/>
          <path id="Path_951" data-name="Path 951" d="M180.923,554.249a9.521,9.521,0,0,0,3.375-3.718l.485.858a10.094,10.094,0,0,1-3.4,3.6,11.087,11.087,0,0,1-3.971,1.566l-.536-.829a10.424,10.424,0,0,0,4.042-1.475m-.6-3.2-.637.636a21.032,21.032,0,0,0-2.516-2.112l.576-.616a22.016,22.016,0,0,1,2.577,2.091" transform="translate(-65.218 -202.406)" fill="#262727"/>
          <path id="Path_952" data-name="Path 952" d="M192.692,549.348a6.376,6.376,0,0,0-.081-1.05h.99c-.03.313-.071.748-.071,1.05V551a32.4,32.4,0,0,1,4.315,1.667l-.343.859a26.511,26.511,0,0,0-3.971-1.627c.011,1.516.011,3.042.011,3.334,0,.314.02.859.06,1.193h-.98a8.915,8.915,0,0,0,.071-1.193Z" transform="translate(-71.018 -202.163)" fill="#262727"/>
          <path id="Path_953" data-name="Path 953" d="M294.216,542.988l1.031-1.425a3.483,3.483,0,0,0,2.47,1.137,1.81,1.81,0,0,0,1.985-1.909,1.751,1.751,0,0,0-1.895-1.894,2.684,2.684,0,0,0-1.682.59l-1.015-.651.3-5.455h6v1.864h-4.076l-.212,2.379a3.142,3.142,0,0,1,1.349-.3,3.179,3.179,0,0,1,3.455,3.394,3.73,3.73,0,0,1-3.925,3.8,5.11,5.11,0,0,1-3.788-1.53" transform="translate(-108.481 -196.663)" fill="#791019"/>
          <path id="Path_954" data-name="Path 954" d="M308.785,538.667c0-3.7,1.5-5.622,3.8-5.622s3.788,1.939,3.788,5.622c0,3.712-1.485,5.727-3.788,5.727s-3.8-2.015-3.8-5.727m5.485,0c0-3.031-.712-3.879-1.682-3.879s-1.7.849-1.7,3.879.728,3.985,1.7,3.985,1.682-.939,1.682-3.985" transform="translate(-113.852 -196.54)" fill="#791019"/>
          <path id="Path_955" data-name="Path 955" d="M322.92,538.667c0-3.7,1.5-5.622,3.8-5.622s3.788,1.939,3.788,5.622c0,3.712-1.485,5.727-3.788,5.727s-3.8-2.015-3.8-5.727m5.485,0c0-3.031-.712-3.879-1.682-3.879s-1.7.849-1.7,3.879.728,3.985,1.7,3.985,1.682-.939,1.682-3.985" transform="translate(-119.064 -196.54)" fill="#791019"/>
          <path id="Path_956" data-name="Path 956" d="M43.9,606.943a4.557,4.557,0,1,1-4.557-4.558,4.558,4.558,0,0,1,4.557,4.558m-8.337,0a3.78,3.78,0,1,0,3.78-3.779,3.774,3.774,0,0,0-3.78,3.779" transform="translate(-12.825 -222.106)" fill="#262727"/>
          <path id="Path_957" data-name="Path 957" d="M59.9,606.943a4.557,4.557,0,1,1-4.557-4.558,4.558,4.558,0,0,1,4.557,4.558m-8.337,0a3.78,3.78,0,1,0,3.78-3.779,3.774,3.774,0,0,0-3.78,3.779" transform="translate(-18.725 -222.106)" fill="#262727"/>
          <path id="Path_958" data-name="Path 958" d="M75.8,603.6v.717H68.2v1.89a11.716,11.716,0,0,1-1,5.325,2.8,2.8,0,0,0-.637-.424,10.444,10.444,0,0,0,.9-4.9V603.6h3.708V602.3h.768V603.6Zm-3.526,2.133h3.385v.677H72.269v1.445h2.708v3.658h-.758v-.374H69.854v.394h-.737v-3.678h2.394v-3.325h.758Zm1.95,2.789H69.854v1.94h4.365Z" transform="translate(-24.541 -222.076)" fill="#262727"/>
          <path id="Path_959" data-name="Path 959" d="M87.227,604.122c-.01.273,0,.637,0,1.031.8-.02,2.081-.071,2.991-.182l.031.758c-.9.092-2.193.152-3.022.162v.081c0,.667.05,1.646.1,2.526a8.014,8.014,0,0,1,3.142,1.718l-.485.768a7.185,7.185,0,0,0-2.627-1.678c.01.263.021.5.021.678,0,.828-.506,1.535-1.85,1.535-1.395,0-2.425-.445-2.425-1.6,0-.91.8-1.657,2.547-1.657a5.955,5.955,0,0,1,.859.061c-.04-.819-.081-1.749-.081-2.355,0-.586,0-1.415-.01-1.85a5.09,5.09,0,0,0-.081-1H87.3c-.031.213-.061.7-.071,1m-1.778,6.639c.738,0,1.1-.344,1.1-1.041,0-.162-.01-.384-.01-.647a4.684,4.684,0,0,0-.99-.1c-1.04,0-1.637.363-1.637.919s.566.869,1.536.869" transform="translate(-30.641 -222.377)" fill="#262727"/>
          <path id="Path_960" data-name="Path 960" d="M98.875,605.849c.414-1.03,1.465-2.293,2.749-2.293,1.343,0,2.3,1.344,2.3,3.466,0,2.809-1.758,4.042-4.264,4.5l-.475-.728c2.193-.323,3.91-1.222,3.91-3.759,0-1.6-.545-2.748-1.606-2.748-1.263,0-2.436,1.839-2.557,3.162a4.712,4.712,0,0,0,.02,1.243l-.778.061a12.193,12.193,0,0,1-.111-1.607,26.588,26.588,0,0,1,.313-3.264c.04-.3.061-.6.081-.869l.889.03a18.76,18.76,0,0,0-.475,2.809" transform="translate(-36.158 -222.336)" fill="#262727"/>
          <path id="Path_961" data-name="Path 961" d="M40.182,632.475a10.124,10.124,0,0,0,3.779,3.021,3.627,3.627,0,0,0-.525.636,11.285,11.285,0,0,1-3.769-3.264v3.658h-.778v-3.638a11.081,11.081,0,0,1-3.738,3.2,4.3,4.3,0,0,0-.526-.616,10.078,10.078,0,0,0,3.759-3H34.837v-.718h4.052v-2.516H35.311v-.718h3.577v-1.2h.778v1.2h3.658v.718H39.667v2.516h4.082v.718Zm-3.4-3a7.247,7.247,0,0,1,.96,1.889l-.708.273a7.368,7.368,0,0,0-.909-1.91Zm4.052,1.97a14.42,14.42,0,0,0,1.02-2.011l.768.243a16.664,16.664,0,0,1-1.162,1.98Z" transform="translate(-12.766 -231.301)" fill="#262727"/>
          <path id="Path_962" data-name="Path 962" d="M59.8,628.6v.717H52.2v1.89a11.716,11.716,0,0,1-1,5.325,2.8,2.8,0,0,0-.637-.424,10.444,10.444,0,0,0,.9-4.9V628.6h3.708v-1.294h.768V628.6Zm-3.526,2.133h3.385v.677H56.269v1.445h2.708v3.658h-.758v-.374H53.854v.394h-.737v-3.678h2.394v-3.325h.758Zm1.95,2.789H53.854v1.94h4.365Z" transform="translate(-18.642 -231.294)" fill="#262727"/>
          <path id="Path_963" data-name="Path 963" d="M70.366,628.595c-.01.242-.03.636-.041,1.091a13.517,13.517,0,0,0,2.082-.4l.02.788a18.683,18.683,0,0,1-2.122.354c-.011.475-.02.96-.02,1.364v.354a7.665,7.665,0,0,1,2.223-.373c1.475,0,2.537.8,2.537,2.01s-.768,2-2.152,2.334a7.606,7.606,0,0,1-1.254.142l-.283-.819a5.136,5.136,0,0,0,1.182-.07c.889-.172,1.7-.647,1.7-1.576,0-.86-.778-1.324-1.739-1.324a6.629,6.629,0,0,0-2.2.395c.021.859.041,1.758.041,2.192,0,.94-.343,1.243-.889,1.243-.788,0-2.1-.778-2.1-1.677,0-.839,1.051-1.718,2.213-2.213v-.576c0-.4,0-.879.01-1.323-.283.02-.536.03-.747.03a11.091,11.091,0,0,1-1.294-.051l-.02-.768a9.362,9.362,0,0,0,1.294.081c.232,0,.495-.01.778-.03,0-.525.009-.97.009-1.152a5.328,5.328,0,0,0-.05-.717h.9a6.323,6.323,0,0,0-.071.7m-1.132,6.841c.232,0,.374-.162.374-.495,0-.364-.021-1.05-.03-1.788-.829.384-1.445.97-1.445,1.425s.707.859,1.1.859m6.649-4.941-.414.646a12.819,12.819,0,0,0-2.263-1.515l.364-.607a18.316,18.316,0,0,1,2.314,1.475" transform="translate(-24.831 -231.513)" fill="#262727"/>
          <path id="Path_964" data-name="Path 964" d="M86.68,629.437a9.254,9.254,0,0,1-1.314,2.153c.485.4,1.395,1.2,1.647,1.435l-.465.616a19.143,19.143,0,0,0-1.375-1.4v4.284h-.727v-3.93a10.284,10.284,0,0,1-1.667,1.323,3.263,3.263,0,0,0-.394-.687,8.832,8.832,0,0,0,3.324-3.354H82.739v-.687h1.708V627.3h.727v1.88h.95l.131-.03Zm3.86,6.245c.485,0,.566-.394.636-1.92a1.946,1.946,0,0,0,.708.324c-.111,1.727-.313,2.323-1.294,2.323H88.832c-.97,0-1.263-.293-1.263-1.394v-7.528h.768v7.548c0,.535.09.646.576.646Z" transform="translate(-30.376 -231.294)" fill="#262727"/>
          <path id="Path_965" data-name="Path 965" d="M99.689,634.736l-.7-.465a10.808,10.808,0,0,0,1.93-2.648l.708.344a14.614,14.614,0,0,1-1.941,2.768m4.1-6.123v1.031h2.668a7.758,7.758,0,0,0,.828-.051v.838c-.273-.02-.576-.02-.818-.02h-2.678V635.3c0,.535-.263.808-.869.808-.424,0-1.03-.03-1.434-.071l-.071-.808a7.187,7.187,0,0,0,1.162.121c.273,0,.394-.121.394-.384v-4.558h-2.809c-.3,0-.585.01-.859.031v-.849a7.571,7.571,0,0,0,.859.051h2.809V628.6a3.617,3.617,0,0,0-.071-.718h.95a4.786,4.786,0,0,0-.061.727m3.81,5.659-.748.414A16.735,16.735,0,0,0,105.166,632l.687-.364a21.747,21.747,0,0,1,1.749,2.637m-.96-7.175a1.115,1.115,0,0,1,1.112,1.112,1.107,1.107,0,0,1-2.213,0,1.113,1.113,0,0,1,1.1-1.112m0,1.758a.647.647,0,0,0,.657-.646.654.654,0,0,0-.657-.647.643.643,0,0,0-.637.647.636.636,0,0,0,.637.646" transform="translate(-36.499 -231.218)" fill="#262727"/>
          <path id="Path_966" data-name="Path 966" d="M118.625,630.528a12.026,12.026,0,0,0,2.758-2.375l.677.626a16.455,16.455,0,0,1-2.728,2.254V635.3a7.638,7.638,0,0,0,.061,1.081h-.99a9.38,9.38,0,0,0,.061-1.081v-3.739a19.9,19.9,0,0,1-3.85,1.646l-.4-.788a16.725,16.725,0,0,0,4.416-1.89" transform="translate(-42.11 -231.607)" fill="#262727"/>
          <path id="Path_967" data-name="Path 967" d="M132.923,634.249a9.52,9.52,0,0,0,3.375-3.718l.485.859a10.094,10.094,0,0,1-3.4,3.6,11.087,11.087,0,0,1-3.971,1.566l-.536-.829a10.426,10.426,0,0,0,4.042-1.475m-.6-3.2-.637.636a21.038,21.038,0,0,0-2.516-2.112l.576-.616a22.015,22.015,0,0,1,2.577,2.091" transform="translate(-47.52 -231.903)" fill="#262727"/>
          <path id="Path_968" data-name="Path 968" d="M144.692,629.349a6.375,6.375,0,0,0-.081-1.05h.99c-.03.313-.071.748-.071,1.05V631a32.4,32.4,0,0,1,4.315,1.667l-.343.859a26.511,26.511,0,0,0-3.971-1.627c.011,1.516.011,3.042.011,3.335,0,.314.02.859.06,1.193h-.98a8.918,8.918,0,0,0,.071-1.193Z" transform="translate(-53.32 -231.66)" fill="#262727"/>
          <path id="Path_969" data-name="Path 969" d="M294.216,615.988l1.031-1.425a3.483,3.483,0,0,0,2.47,1.137,1.81,1.81,0,0,0,1.985-1.909,1.751,1.751,0,0,0-1.895-1.894,2.684,2.684,0,0,0-1.682.59l-1.015-.651.3-5.455h6v1.864h-4.076l-.212,2.379a3.143,3.143,0,0,1,1.349-.3,3.179,3.179,0,0,1,3.455,3.394,3.73,3.73,0,0,1-3.925,3.8,5.111,5.111,0,0,1-3.788-1.53" transform="translate(-108.481 -223.579)" fill="#791019"/>
          <path id="Path_970" data-name="Path 970" d="M308.785,611.667c0-3.7,1.5-5.622,3.8-5.622s3.788,1.939,3.788,5.622c0,3.712-1.485,5.727-3.788,5.727s-3.8-2.015-3.8-5.727m5.485,0c0-3.031-.712-3.879-1.682-3.879s-1.7.848-1.7,3.879.728,3.985,1.7,3.985,1.682-.939,1.682-3.985" transform="translate(-113.852 -223.455)" fill="#791019"/>
          <path id="Path_971" data-name="Path 971" d="M322.92,611.667c0-3.7,1.5-5.622,3.8-5.622s3.788,1.939,3.788,5.622c0,3.712-1.485,5.727-3.788,5.727s-3.8-2.015-3.8-5.727m5.485,0c0-3.031-.712-3.879-1.682-3.879s-1.7.848-1.7,3.879.728,3.985,1.7,3.985,1.682-.939,1.682-3.985" transform="translate(-119.064 -223.455)" fill="#791019"/>
          <path id="Path_972" data-name="Path 972" d="M119.009,5.921a20.521,20.521,0,0,1-2.987,1.768,8.18,8.18,0,0,0-1.237-1.768A17.559,17.559,0,0,0,121.925,0h2.192a16.175,16.175,0,0,0,7.476,5.6,10.883,10.883,0,0,0-1.361,1.927,21.489,21.489,0,0,1-2.97-1.715v1.4h-8.254ZM115.88,8.678H130.5v1.944h-7.919c-.512,1.043-1.1,2.139-1.626,3.129,1.7-.053,3.517-.123,5.32-.194a21.356,21.356,0,0,0-1.732-1.8l1.855-.972a23.79,23.79,0,0,1,4.048,4.543l-1.961,1.184a9.451,9.451,0,0,0-.707-1.1c-4.154.23-8.52.407-11.525.548l-.283-2.05,2.669-.088a34.113,34.113,0,0,0,1.343-3.2h-4.1ZM126.5,5.285a17.15,17.15,0,0,1-3.394-3.27,16.048,16.048,0,0,1-3.235,3.27Z" transform="translate(-42.322)" fill="#3d2c14"/>
          <path id="Path_973" data-name="Path 973" d="M154.795,13.726c1.662.494,3.518,1.131,4.737,1.626l-1.856,1.485A47.157,47.157,0,0,0,152,14.786l1.485-1.06h-4.826l1.361.954a23.53,23.53,0,0,1-5.479,2.121,18.688,18.688,0,0,0-1.591-1.5,21.565,21.565,0,0,0,4.56-1.573h-2.775V5.913h12.921v7.813Zm2.245-8.467H145.532V.84H157.04ZM146.823,8.1h8.661v-.76h-8.661Zm0,2.086h8.661V9.448h-8.661Zm0,2.121h8.661v-.778h-8.661Zm7.972-9.828h-7.141V3.632h7.141Z" transform="translate(-52.708 -0.31)" fill="#3d2c14"/>
          <path id="Path_974" data-name="Path 974" d="M185.316,8.079a12.7,12.7,0,0,1-2.617,4.9,13.231,13.231,0,0,1-6.31,3.818l-1.75-2a11.925,11.925,0,0,0,6.116-3.093,7.661,7.661,0,0,0,1.821-3.058h-8.538c-.424,0-1.308.018-2.05.088v-2.3c.742.053,1.5.106,2.05.106h8.75a3.732,3.732,0,0,0,1.29-.177l1.573.972a6.55,6.55,0,0,0-.336.742M175.453,2.3h6.805a16.668,16.668,0,0,0,1.908-.088v2.28c-.477-.035-1.309-.053-1.944-.053h-6.77c-.566,0-1.326.018-1.839.053V2.211a14.9,14.9,0,0,0,1.839.088" transform="translate(-63.414 -0.815)" fill="#3d2c14"/>
          <path id="Path_975" data-name="Path 975" d="M204.322,11.863a16.641,16.641,0,0,0,6.434-6.877l1.379,2.493a18.8,18.8,0,0,1-6.54,6.54,19.156,19.156,0,0,1-6.558,2.492l-1.485-2.333a18.219,18.219,0,0,0,6.77-2.316m0-5.709-1.8,1.838A36.794,36.794,0,0,0,198.1,4.174l1.661-1.768a35.759,35.759,0,0,1,4.56,3.748" transform="translate(-72.84 -0.887)" fill="#3d2c14"/>
          <path id="Path_976" data-name="Path 976" d="M230.118,3.155c-.017.036-.035.053-.053.089h3.553a5.693,5.693,0,0,0,1.538-.212l1.8,1.113a7.119,7.119,0,0,0-.583,1.273,18.433,18.433,0,0,1-3.076,5.9,16.5,16.5,0,0,1-7.141,4.984l-2.086-1.874a14.083,14.083,0,0,0,7.123-4.366,12.574,12.574,0,0,0,2.511-4.825h-4.968a20.17,20.17,0,0,1-4.454,4.277L222.3,8.052a15.565,15.565,0,0,0,5.515-5.692,8.5,8.5,0,0,0,.8-1.855l2.581.848c-.407.618-.866,1.414-1.078,1.8" transform="translate(-81.966 -0.186)" fill="#3d2c14"/>
          <rect id="Rectangle_1447" data-name="Rectangle 1447" width="55.553" height="1.894" transform="translate(88.38 26.948)" fill="#d5d5d5"/>
          <line id="Line_2" data-name="Line 2" x2="207.694" transform="translate(12.31 198.658)" fill="none" stroke="#c0c1c1" stroke-width="1"/>
          <line id="Line_3" data-name="Line 3" x2="207.694" transform="translate(12.31 235.905)" fill="none" stroke="#c0c1c1" stroke-width="1"/>
          <line id="Line_4" data-name="Line 4" x2="207.694" transform="translate(12.31 275.676)" fill="none" stroke="#c0c1c1" stroke-width="1"/>
          <line id="Line_5" data-name="Line 5" x2="207.694" transform="translate(12.31 316.078)" fill="none" stroke="#c0c1c1" stroke-width="1"/>
          <line id="Line_6" data-name="Line 6" x2="207.694" transform="translate(12.31 365.95)" fill="none" stroke="#c0c1c1" stroke-width="1"/>
        </g>
      </g>
      <rect id="Rectangle_1450" data-name="Rectangle 1450" width="277" height="36" transform="translate(821 1778)" fill="url(#linear-gradient)"/>
    </g>
  </g>
</svg>
