<svg xmlns="http://www.w3.org/2000/svg" xmlns:xlink="http://www.w3.org/1999/xlink" width="324" height="324" viewBox="0 0 324 324">
  <defs>
    <filter id="Rectangle_1379" x="0" y="0" width="324" height="324" filterUnits="userSpaceOnUse">
      <feOffset dx="15" dy="15" input="SourceAlpha"/>
      <feGaussianBlur result="blur"/>
      <feFlood flood-color="#c5a65d" flood-opacity="0.2"/>
      <feComposite operator="in" in2="blur"/>
      <feComposite in="SourceGraphic"/>
    </filter>
    <clipPath id="clip-path">
      <rect id="Rectangle_1441" data-name="Rectangle 1441" width="35.671" height="43.074" fill="#b08e45"/>
    </clipPath>
  </defs>
  <g id="Group_5397" data-name="Group 5397" transform="translate(-440 -1426)">
    <g transform="matrix(1, 0, 0, 1, 440, 1426)" filter="url(#Rectangle_1379)">
      <g id="Rectangle_1379-2" data-name="Rectangle 1379" fill="#fffef5" stroke="#c5a65d" stroke-width="1">
        <rect width="309" height="309" rx="10" stroke="none"/>
        <rect x="0.5" y="0.5" width="308" height="308" rx="9.5" fill="none"/>
      </g>
    </g>
    <g id="Group_4570" data-name="Group 4570" transform="translate(-43 -1339.154)">
      <g id="Group_4566" data-name="Group 4566" transform="translate(493 2801.523)">
        <g id="Group_4565" data-name="Group 4565" transform="translate(0 0)" clip-path="url(#clip-path)">
          <path id="Path_851" data-name="Path 851" d="M24.6,11.929h0a.88.88,0,0,1-1.216-.247L16.549,1.36A.877.877,0,1,1,18.012.392l6.835,10.321a.88.88,0,0,1-.247,1.216" transform="translate(-6.721 0)" fill="#b08e45"/>
          <path id="Path_852" data-name="Path 852" d="M47.917,47.144h0A.88.88,0,0,1,46.7,46.9L30.989,23.169a.877.877,0,1,1,1.463-.969L48.164,45.928a.88.88,0,0,1-.247,1.216" transform="translate(-12.638 -8.936)" fill="#b08e45"/>
          <path id="Path_853" data-name="Path 853" d="M11.315,44.31h0a.879.879,0,0,1-1.231.15L.336,36.83a.877.877,0,1,1,1.081-1.382l9.748,7.63a.88.88,0,0,1,.15,1.231" transform="translate(0 -14.449)" fill="#b08e45"/>
          <path id="Path_854" data-name="Path 854" d="M36.207,63.793h0a.879.879,0,0,1-1.231.15L20.933,52.951a.877.877,0,1,1,1.081-1.381L36.057,62.562a.88.88,0,0,1,.15,1.231" transform="translate(-8.439 -21.055)" fill="#b08e45"/>
        </g>
      </g>
      <g id="Group_4565-2" data-name="Group 4565" transform="translate(746.547 2801.523)" clip-path="url(#clip-path)">
        <path id="Path_851-2" data-name="Path 851" d="M16.8,11.929h0a.88.88,0,0,0,1.216-.247L24.846,1.36A.877.877,0,1,0,23.383.392L16.549,10.713a.88.88,0,0,0,.247,1.216" transform="translate(0.997 0)" fill="#b08e45"/>
        <path id="Path_852-2" data-name="Path 852" d="M31.237,47.144h0a.88.88,0,0,0,1.216-.247L48.164,23.169A.877.877,0,1,0,46.7,22.2L30.989,45.928a.88.88,0,0,0,.247,1.216" transform="translate(-30.844 -8.936)" fill="#b08e45"/>
        <path id="Path_853-2" data-name="Path 853" d="M.186,44.31h0a.879.879,0,0,0,1.231.15l9.748-7.63a.877.877,0,1,0-1.081-1.382L.336,43.078a.88.88,0,0,0-.15,1.231" transform="translate(24.17 -14.449)" fill="#b08e45"/>
        <path id="Path_854-2" data-name="Path 854" d="M20.782,63.793h0a.879.879,0,0,0,1.231.15L36.056,52.951a.877.877,0,1,0-1.081-1.381L20.932,62.562a.88.88,0,0,0-.15,1.231" transform="translate(-12.879 -21.055)" fill="#b08e45"/>
      </g>
    </g>
    <text id="かんたん予約" transform="translate(596 1492)" fill="#4e3b0e" font-size="22" font-family="SourceHanSansJP-Bold, Source Han Sans JP" font-weight="700"><tspan x="-66" y="0">かんたん予約</tspan></text>
  </g>
</svg>
