<svg xmlns="http://www.w3.org/2000/svg" width="16" height="16"><defs><clipPath id="a"><path fill="none" d="M0 0h16v16H0z"/></clipPath></defs><g data-name="Component 186" clip-path="url(#a)"><path data-name="Rectangle 557" fill="none" d="M0 0h16v16H0z"/><path data-name="Path 149" d="M2 5v9h12V5Zm11-3h2a.945.945 0 0 1 1 1v12a.945.945 0 0 1-1 1H1a.945.945 0 0 1-1-1V3a.945.945 0 0 1 1-1h2V1a.945.945 0 0 1 1-1 .945.945 0 0 1 1 1v1h6V1a1 1 0 0 1 2 0Zm-1 10h-2v-2h2Zm-3 0H7v-2h2Zm3-3h-2V7h2ZM9 9H7V7h2Zm-3 3H4v-2h2Z" fill="#fff" fill-rule="evenodd"/></g></svg>