<svg xmlns="http://www.w3.org/2000/svg" xmlns:xlink="http://www.w3.org/1999/xlink" width="266.078" height="93.774" viewBox="0 0 266.078 93.774">
  <defs>
    <clipPath id="clip-path">
      <rect id="Rectangle_1372" data-name="Rectangle 1372" width="266.078" height="93.774" fill="none"/>
    </clipPath>
  </defs>
  <g id="Group_4538" data-name="Group 4538" transform="translate(-120 -47)">
    <g id="Group_4537" data-name="Group 4537" transform="translate(120 47)" clip-path="url(#clip-path)">
      <path id="Path_809" data-name="Path 809" d="M102.666,25.614v33.97H98.056V34.309a3.238,3.238,0,0,0-4.822-2.829,114.061,114.061,0,0,1-21.7,9.649l-.869-1.314C87.5,33.81,108.21,18.984,118.231,6.534l3.34,2.565c-4.543,5.568-11.291,11.324-18.906,16.515" transform="translate(12.792 1.183)" fill="#191919"/>
      <path id="Path_810" data-name="Path 810" d="M177.165,32.025h-24.25c-.066,13.325-4.475,23.272-21.977,27.4l-.868-1.313c15.3-4.441,18.17-13.7,18.236-26.086H121.519V30.586h26.787V18.821a3.236,3.236,0,0,0-3.674-3.21c-5.3.73-10.74,1.272-15.832,1.526l-.468-1.252a163.124,163.124,0,0,0,39.414-8.821l2.2,3.379c-4.809,1.376-10.754,2.752-17.035,3.878V30.586h24.25Z" transform="translate(21.997 1.279)" fill="#191919"/>
      <path id="Path_811" data-name="Path 811" d="M234.214,21.8h-15.9c-1.8,18.018-11.223,32.53-30.261,38.848l-.935-1.314C202.994,53.026,210.7,40.516,213.04,25.51a3.24,3.24,0,0,0-3.215-3.712h-16.5A69.3,69.3,0,0,1,177.3,40.44l-1.27-1c8.552-8.384,16.166-21.646,19.373-33.594l4.809.75a69.915,69.915,0,0,1-6.079,13.826h40.082Z" transform="translate(31.864 1.058)" fill="#191919"/>
      <path id="Path_812" data-name="Path 812" d="M55.528,68.251a6.414,6.414,0,0,1,2.037.274,3.451,3.451,0,0,1,1.267.718,2.446,2.446,0,0,1,.65.98,3.277,3.277,0,0,1,.183,1.058,3.183,3.183,0,0,1-.42,1.7,2.946,2.946,0,0,1-1.351,1.1L60.153,78.6H58.138l-1.953-4.118q-.138.014-.291.021c-.1,0-.209.008-.32.008H53.619V78.6H51.8V68.251Zm.137,4.785a3.666,3.666,0,0,0,1.038-.124,1.566,1.566,0,0,0,.648-.347,1.244,1.244,0,0,0,.337-.543,2.4,2.4,0,0,0,.1-.712,1.838,1.838,0,0,0-.115-.659,1.188,1.188,0,0,0-.381-.508,1.979,1.979,0,0,0-.711-.327,4.5,4.5,0,0,0-1.1-.115H53.619v3.335Z" transform="translate(9.377 12.355)" fill="#b08e45"/>
      <path id="Path_813" data-name="Path 813" d="M69.851,78.442A3.857,3.857,0,0,1,66.966,77.4a4.056,4.056,0,0,1-1.023-2.96A4.814,4.814,0,0,1,66.21,72.8a3.511,3.511,0,0,1,.771-1.261,3.475,3.475,0,0,1,1.237-.813,4.515,4.515,0,0,1,1.664-.289,4.438,4.438,0,0,1,1.679.3,3.457,3.457,0,0,1,1.228.82,3.394,3.394,0,0,1,.749,1.254,4.909,4.909,0,0,1,.252,1.6,4.756,4.756,0,0,1-.291,1.733,3.512,3.512,0,0,1-.816,1.262,3.458,3.458,0,0,1-1.245.776,4.623,4.623,0,0,1-1.587.261m.015-1.335a1.84,1.84,0,0,0,1.611-.718,3.335,3.335,0,0,0,.511-1.965,3.275,3.275,0,0,0-.511-1.943,2.176,2.176,0,0,0-3.222.007,3.282,3.282,0,0,0-.511,1.936,3.4,3.4,0,0,0,.5,1.958,1.822,1.822,0,0,0,1.625.725" transform="translate(11.937 12.75)" fill="#b08e45"/>
      <path id="Path_814" data-name="Path 814" d="M80.415,79.508a2.67,2.67,0,0,0,.87.131A1.106,1.106,0,0,0,82,79.428a1.924,1.924,0,0,0,.489-.79l.291-.725-3.343-7.28h2.015l2.183,5.439,2-5.439h1.892l-3.159,7.614q-.275.666-.52,1.174a3.751,3.751,0,0,1-.549.856,2.03,2.03,0,0,1-.725.529,2.6,2.6,0,0,1-1.03.182,4.86,4.86,0,0,1-.733-.052,4.914,4.914,0,0,1-.717-.167Z" transform="translate(14.379 12.786)" fill="#b08e45"/>
      <path id="Path_815" data-name="Path 815" d="M98.452,77.224a3.664,3.664,0,0,1-1.084.841,3.347,3.347,0,0,1-1.558.334,3.812,3.812,0,0,1-1.053-.139,2.462,2.462,0,0,1-.847-.412,1.923,1.923,0,0,1-.565-.7,2.308,2.308,0,0,1-.207-1.009,2.063,2.063,0,0,1,.366-1.27,2.518,2.518,0,0,1,.954-.761,4.784,4.784,0,0,1,1.322-.385,13.636,13.636,0,0,1,1.464-.137l1.175-.058v-.32a1.391,1.391,0,0,0-.435-1.181,1.846,1.846,0,0,0-1.137-.326,2.2,2.2,0,0,0-1.2.26,1.233,1.233,0,0,0-.511.755l-1.587-.159a2.284,2.284,0,0,1,1.053-1.61,4.458,4.458,0,0,1,2.305-.507,4.536,4.536,0,0,1,1.565.23,2.456,2.456,0,0,1,.984.639,2.247,2.247,0,0,1,.511.965,4.851,4.851,0,0,1,.145,1.225V78.21H98.452Zm-1.146-2.538a7.378,7.378,0,0,0-1.259.159,2.2,2.2,0,0,0-.74.3.866.866,0,0,0-.344.42,1.555,1.555,0,0,0-.084.515.941.941,0,0,0,.328.768,1.469,1.469,0,0,0,.968.276,2.309,2.309,0,0,0,1.695-.55,2.02,2.02,0,0,0,.549-1.494v-.436Z" transform="translate(16.859 12.75)" fill="#b08e45"/>
      <rect id="Rectangle_1371" data-name="Rectangle 1371" width="1.74" height="10.354" transform="translate(126.533 80.607)" fill="#b08e45"/>
      <path id="Path_816" data-name="Path 816" d="M128.968,69.773h-3.45V68.251h8.731v1.522h-3.434V78.6h-1.847Z" transform="translate(22.721 12.355)" fill="#b08e45"/>
      <path id="Path_817" data-name="Path 817" d="M142.249,69.889h-1.8V68.251h1.8Zm-.031,8.717h-1.74V71.064h1.74Z" transform="translate(25.423 12.355)" fill="#b08e45"/>
      <path id="Path_818" data-name="Path 818" d="M157.137,75.57a3.167,3.167,0,0,1-1.016,2.11,3.6,3.6,0,0,1-2.465.762,4.523,4.523,0,0,1-1.672-.283,3.121,3.121,0,0,1-1.182-.8,3.31,3.31,0,0,1-.7-1.255,5.453,5.453,0,0,1-.229-1.631,5.008,5.008,0,0,1,.26-1.646,3.533,3.533,0,0,1,.756-1.275,3.365,3.365,0,0,1,1.213-.82,4.345,4.345,0,0,1,1.633-.289,4.223,4.223,0,0,1,1.421.209,2.8,2.8,0,0,1,.961.566,2.625,2.625,0,0,1,.6.82,3.975,3.975,0,0,1,.3.972l-1.724.246a2.344,2.344,0,0,0-.465-1.058,1.408,1.408,0,0,0-1.153-.42,1.724,1.724,0,0,0-1.573.834,2.58,2.58,0,0,0-.327.848,4.706,4.706,0,0,0-.1.972,5,5,0,0,0,.107,1.058,2.54,2.54,0,0,0,.335.849,1.684,1.684,0,0,0,.611.566,1.906,1.906,0,0,0,.932.21,1.664,1.664,0,0,0,1.206-.4,1.9,1.9,0,0,0,.518-1.139Z" transform="translate(27.129 12.75)" fill="#b08e45"/>
      <path id="Path_819" data-name="Path 819" d="M165.551,68.251v5.728l3.389-2.915h2.03l-2.87,2.566,3.13,4.974h-1.909l-2.473-4.031-1.3,1.1v2.929h-1.695V68.251Z" transform="translate(29.66 12.355)" fill="#b08e45"/>
      <path id="Path_820" data-name="Path 820" d="M184.134,75.977a2.838,2.838,0,0,1-1.052,1.82,3.9,3.9,0,0,1-2.413.645,3.78,3.78,0,0,1-2.877-1.037,4.074,4.074,0,0,1-.985-2.922,4.88,4.88,0,0,1,.282-1.725,3.549,3.549,0,0,1,.794-1.27,3.412,3.412,0,0,1,1.221-.783,4.41,4.41,0,0,1,1.565-.268,4.289,4.289,0,0,1,1.588.268,2.983,2.983,0,0,1,1.114.755,3.084,3.084,0,0,1,.657,1.16,4.977,4.977,0,0,1,.214,1.5v.725h-5.695a2.7,2.7,0,0,0,.55,1.668,1.908,1.908,0,0,0,1.572.638,2.069,2.069,0,0,0,1.236-.3,1.466,1.466,0,0,0,.55-.869ZM182.547,73.7a2.18,2.18,0,0,0-.458-1.464,1.824,1.824,0,0,0-1.464-.536,1.9,1.9,0,0,0-1.467.543,2.364,2.364,0,0,0-.58,1.457Z" transform="translate(32.005 12.75)" fill="#b08e45"/>
      <path id="Path_821" data-name="Path 821" d="M190.341,72.249V70.944h1.252v-2.03h1.725v2.03h1.969v1.305h-1.969v3.945a1.172,1.172,0,0,0,.252.841.979.979,0,0,0,.741.261,4.187,4.187,0,0,0,.5-.028,2.645,2.645,0,0,0,.465-.1l.26,1.233a5.238,5.238,0,0,1-1.588.231,2.235,2.235,0,0,1-1.832-.645,3.046,3.046,0,0,1-.518-1.937v-3.8Z" transform="translate(34.454 12.475)" fill="#b08e45"/>
      <path id="Path_822" data-name="Path 822" d="M71.357,45.375c-.748,0-1.424.586-2.312,1.57-2.343,2.353-4.683,4.507-7.153,6.588-5.052,4.229-8.226,6.114-10.289,6.114a1.854,1.854,0,0,1-2.042-2.009A11.872,11.872,0,0,1,51.5,52.019H41.458a13.053,13.053,0,0,0-.728,4.457c0,4.664,3,7.447,8.018,7.447,4.123,0,8.866-2.4,14.5-7.335a99.1,99.1,0,0,0,8.024-7.7c.764-.844,1.919-2.12,1.051-3.079a1.288,1.288,0,0,0-.964-.436" transform="translate(7.372 8.214)" fill="#b08e45"/>
      <path id="Path_823" data-name="Path 823" d="M73.055,5.426,71.377,4.415C69.5,3.38,62.431,0,50.115,0,25.29,0,3.439,14.29.371,32.531-.635,38.434.411,43.5,3.4,47.169a14.71,14.71,0,0,0,11.135,5.224c2.566,0,4.506-.984,5.029-1.907a1.114,1.114,0,0,0,.019-1.148,1.151,1.151,0,0,0-1.479-.42,7.4,7.4,0,0,1-3.195.2,7.47,7.47,0,0,1-5.594-3.084C7.176,43.1,6.632,38.357,7.82,33,11.3,16.522,30.277,3.116,50.115,3.116c9.8,0,15.371,2.361,18.287,4.323l1.766,1.3c3.2,2.654,5.251,8.376,2.611,15.182a18.752,18.752,0,0,1-14.612,11.65c-2.434-1.385-4.71-3.184-7.27-4.282-3.012-1.292-6.549-2.451-9.887-1.4-3.195,1-5.457,4.258-3.419,7.436,2.2,3.437,6.719,4.052,10.23,3.688a77.937,77.937,0,0,0,9.8-1.552,2.987,2.987,0,0,1,.991,2.21c.123,2.552-1.809,5.222-4.255,8.6L53.5,51.451a40.293,40.293,0,0,0-3.741,6.422H60.278c.091-.15.178-.294.273-.446.542-.883,1.109-1.808,1.657-2.751.829-1.283,3.505-5.793,3.129-9.969a9.12,9.12,0,0,0-3.68-6.4C67.934,37.568,76.877,33.99,80,25.994l0-.009c4.429-11.745-5.711-19.653-6.944-20.559M44.938,36.719c-1.01-.117-3.158-.386-2.857-1.648.252-1.053,2.993-.783,3.123-.776a13.5,13.5,0,0,1,3.95,1.032c.822.358,1.668.736,2.52,1.121a35.823,35.823,0,0,1-6.737.27" transform="translate(0 0)" fill="#b08e45"/>
      <path id="Path_824" data-name="Path 824" d="M67.035,25.524V12.3H20.406V55.647H63.792A3.242,3.242,0,0,0,67.035,52.4V35.991a18.462,18.462,0,0,1-4.743,1.6V50.9a3.242,3.242,0,0,1-3.242,3.243H25.083V13.8H62.292V30.239a19.178,19.178,0,0,0,4.743-4.715" transform="translate(3.694 2.226)" fill="#191919"/>
    </g>
  </g>
</svg>
