<svg xmlns="http://www.w3.org/2000/svg" width="16" height="16"><defs><clipPath id="a"><path fill="none" d="M0 0h16v16H0z"/></clipPath></defs><g data-name="Component 183" clip-path="url(#a)"><path data-name="Rectangle 554" fill="none" d="M0 0h16v16H0z"/><path data-name="Path 148" d="M.267 10.133C.133 9.867 0 9.733 0 9.467A1.018 1.018 0 0 1 .267 8.8L8.933.133A.131.131 0 0 1 9.067 0h5.867a1.018 1.018 0 0 1 .666.267.95.95 0 0 1 .4.8v5.866c0 .133 0 .133-.133.267L7.2 15.867a5.775 5.775 0 0 1-.667.133 1.018 1.018 0 0 1-.667-.267Zm11.2-7.733a1.646 1.646 0 0 0-.533 1.067 1.514 1.514 0 0 0 .4 1.067 1.622 1.622 0 0 0 2.133 0 1.514 1.514 0 0 0 .4-1.067A1.437 1.437 0 0 0 13.6 2.4a1.622 1.622 0 0 0-2.133 0Z" fill="#fff"/></g></svg>